{
	"asset":{
		"generator":"Khronos glTF Blender I/O v4.1.63",
		"version":"2.0"
	},
	"scene":0,
	"scenes":[
		{
			"name":"Scene",
			"nodes":[
				0
			]
		}
	],
	"nodes":[
		{
			"mesh":0,
			"name":"brush1",
			"translation":[
				-1.3524925708770752,
				2.489652395248413,
				7.104996681213379
			]
		}
	],
	"materials":[
		{
			"doubleSided":true,
			"name":"handle",
			"pbrMetallicRoughness":{
				"baseColorFactor":[
					0.09845970571041107,
					0.025582944974303246,
					0.009640690870583057,
					1
				],
				"metallicFactor":0,
				"roughnessFactor":0.5
			}
		},
		{
			"doubleSided":true,
			"name":"metal",
			"pbrMetallicRoughness":{
				"baseColorFactor":[
					0.43038374185562134,
					0.43038374185562134,
					0.43038374185562134,
					1
				],
				"metallicFactor":0.8383233547210693,
				"roughnessFactor":0.5
			}
		},
		{
			"doubleSided":true,
			"name":"thristles",
			"pbrMetallicRoughness":{
				"baseColorFactor":[
					0.8001017570495605,
					0.7964432239532471,
					0.19346675276756287,
					1
				],
				"metallicFactor":0,
				"roughnessFactor":0.5
			}
		}
	],
	"meshes":[
		{
			"name":"Circle.001",
			"primitives":[
				{
					"attributes":{
						"POSITION":0,
						"NORMAL":1,
						"TEXCOORD_0":2
					},
					"indices":3,
					"material":0
				},
				{
					"attributes":{
						"POSITION":4,
						"NORMAL":5,
						"TEXCOORD_0":6
					},
					"indices":7,
					"material":1
				},
				{
					"attributes":{
						"POSITION":8,
						"NORMAL":9,
						"TEXCOORD_0":10
					},
					"indices":11,
					"material":2
				}
			]
		}
	],
	"accessors":[
		{
			"bufferView":0,
			"componentType":5126,
			"count":184,
			"max":[
				0.46193885803222656,
				10.150711059570312,
				0.46193942427635193
			],
			"min":[
				-0.4619390368461609,
				-0.3522624969482422,
				-0.4619385302066803
			],
			"type":"VEC3"
		},
		{
			"bufferView":1,
			"componentType":5126,
			"count":184,
			"type":"VEC3"
		},
		{
			"bufferView":2,
			"componentType":5126,
			"count":184,
			"type":"VEC2"
		},
		{
			"bufferView":3,
			"componentType":5123,
			"count":816,
			"type":"SCALAR"
		},
		{
			"bufferView":4,
			"componentType":5126,
			"count":208,
			"max":[
				0.5164041519165039,
				12.520085334777832,
				0.49786296486854553
			],
			"min":[
				-0.5164042711257935,
				10.150711059570312,
				-0.49786192178726196
			],
			"type":"VEC3"
		},
		{
			"bufferView":5,
			"componentType":5126,
			"count":208,
			"type":"VEC3"
		},
		{
			"bufferView":6,
			"componentType":5126,
			"count":208,
			"type":"VEC2"
		},
		{
			"bufferView":7,
			"componentType":5123,
			"count":672,
			"type":"SCALAR"
		},
		{
			"bufferView":8,
			"componentType":5126,
			"count":179,
			"max":[
				0.4722893238067627,
				14.206629753112793,
				0.16477492451667786
			],
			"min":[
				-0.46247565746307373,
				12.185544967651367,
				-0.16477523744106293
			],
			"type":"VEC3"
		},
		{
			"bufferView":9,
			"componentType":5126,
			"count":179,
			"type":"VEC3"
		},
		{
			"bufferView":10,
			"componentType":5126,
			"count":179,
			"type":"VEC2"
		},
		{
			"bufferView":11,
			"componentType":5123,
			"count":1008,
			"type":"SCALAR"
		}
	],
	"bufferViews":[
		{
			"buffer":0,
			"byteLength":2208,
			"byteOffset":0,
			"target":34962
		},
		{
			"buffer":0,
			"byteLength":2208,
			"byteOffset":2208,
			"target":34962
		},
		{
			"buffer":0,
			"byteLength":1472,
			"byteOffset":4416,
			"target":34962
		},
		{
			"buffer":0,
			"byteLength":1632,
			"byteOffset":5888,
			"target":34963
		},
		{
			"buffer":0,
			"byteLength":2496,
			"byteOffset":7520,
			"target":34962
		},
		{
			"buffer":0,
			"byteLength":2496,
			"byteOffset":10016,
			"target":34962
		},
		{
			"buffer":0,
			"byteLength":1664,
			"byteOffset":12512,
			"target":34962
		},
		{
			"buffer":0,
			"byteLength":1344,
			"byteOffset":14176,
			"target":34963
		},
		{
			"buffer":0,
			"byteLength":2148,
			"byteOffset":15520,
			"target":34962
		},
		{
			"buffer":0,
			"byteLength":2148,
			"byteOffset":17668,
			"target":34962
		},
		{
			"buffer":0,
			"byteLength":1432,
			"byteOffset":19816,
			"target":34962
		},
		{
			"buffer":0,
			"byteLength":2016,
			"byteOffset":21248,
			"target":34963
		}
	],
	"buffers":[
		{
			"byteLength":23264,
			"uri":"data:application/octet-stream;base64,"
		}
	]
}
