{
	"asset":{
		"generator":"Khronos glTF Blender I/O v4.1.63",
		"version":"2.0"
	},
	"scene":0,
	"scenes":[
		{
			"name":"Scene",
			"nodes":[
				0
			]
		}
	],
	"nodes":[
		{
			"mesh":0,
			"name":"Cube.005",
			"translation":[
				-1.3524925708770752,
				4.972704887390137,
				-2.4880380630493164
			]
		}
	],
	"materials":[
		{
			"doubleSided":true,
			"name":"metal",
			"pbrMetallicRoughness":{
				"baseColorFactor":[
					0.43038374185562134,
					0.43038374185562134,
					0.43038374185562134,
					1
				],
				"metallicFactor":0.8383233547210693,
				"roughnessFactor":0.5
			}
		},
		{
			"doubleSided":true,
			"name":"handle",
			"pbrMetallicRoughness":{
				"baseColorFactor":[
					0.09845970571041107,
					0.025582944974303246,
					0.009640690870583057,
					1
				],
				"metallicFactor":0,
				"roughnessFactor":0.5
			}
		},
		{
			"doubleSided":true,
			"name":"thristles",
			"pbrMetallicRoughness":{
				"baseColorFactor":[
					0.8001017570495605,
					0.7964432239532471,
					0.19346675276756287,
					1
				],
				"metallicFactor":0,
				"roughnessFactor":0.5
			}
		}
	],
	"meshes":[
		{
			"name":"Cube",
			"primitives":[
				{
					"attributes":{
						"POSITION":0,
						"NORMAL":1,
						"TEXCOORD_0":2
					},
					"indices":3,
					"material":0
				},
				{
					"attributes":{
						"POSITION":4,
						"NORMAL":5,
						"TEXCOORD_0":6
					},
					"indices":7,
					"material":1
				},
				{
					"attributes":{
						"POSITION":8,
						"NORMAL":9,
						"TEXCOORD_0":10
					},
					"indices":11,
					"material":2
				}
			]
		}
	],
	"accessors":[
		{
			"bufferView":0,
			"componentType":5126,
			"count":442,
			"max":[
				0.5727943181991577,
				6.645923137664795,
				2.1480815410614014
			],
			"min":[
				-0.5727939605712891,
				3.6410088539123535,
				-2.1480815410614014
			],
			"type":"VEC3"
		},
		{
			"bufferView":1,
			"componentType":5126,
			"count":442,
			"type":"VEC3"
		},
		{
			"bufferView":2,
			"componentType":5126,
			"count":442,
			"type":"VEC2"
		},
		{
			"bufferView":3,
			"componentType":5123,
			"count":1926,
			"type":"SCALAR"
		},
		{
			"bufferView":4,
			"componentType":5126,
			"count":433,
			"max":[
				0.5089561343193054,
				3.6410088539123535,
				2.1228840351104736
			],
			"min":[
				-0.5089558959007263,
				-7.120996475219727,
				-2.1228842735290527
			],
			"type":"VEC3"
		},
		{
			"bufferView":5,
			"componentType":5126,
			"count":433,
			"type":"VEC3"
		},
		{
			"bufferView":6,
			"componentType":5126,
			"count":433,
			"type":"VEC2"
		},
		{
			"bufferView":7,
			"componentType":5123,
			"count":2328,
			"type":"SCALAR"
		},
		{
			"bufferView":8,
			"componentType":5126,
			"count":232,
			"max":[
				0.5386098027229309,
				11.144815444946289,
				2.1845715045928955
			],
			"min":[
				-0.5386095643043518,
				6.645920276641846,
				-2.129901647567749
			],
			"type":"VEC3"
		},
		{
			"bufferView":9,
			"componentType":5126,
			"count":232,
			"type":"VEC3"
		},
		{
			"bufferView":10,
			"componentType":5126,
			"count":232,
			"type":"VEC2"
		},
		{
			"bufferView":11,
			"componentType":5123,
			"count":1206,
			"type":"SCALAR"
		}
	],
	"bufferViews":[
		{
			"buffer":0,
			"byteLength":5304,
			"byteOffset":0,
			"target":34962
		},
		{
			"buffer":0,
			"byteLength":5304,
			"byteOffset":5304,
			"target":34962
		},
		{
			"buffer":0,
			"byteLength":3536,
			"byteOffset":10608,
			"target":34962
		},
		{
			"buffer":0,
			"byteLength":3852,
			"byteOffset":14144,
			"target":34963
		},
		{
			"buffer":0,
			"byteLength":5196,
			"byteOffset":17996,
			"target":34962
		},
		{
			"buffer":0,
			"byteLength":5196,
			"byteOffset":23192,
			"target":34962
		},
		{
			"buffer":0,
			"byteLength":3464,
			"byteOffset":28388,
			"target":34962
		},
		{
			"buffer":0,
			"byteLength":4656,
			"byteOffset":31852,
			"target":34963
		},
		{
			"buffer":0,
			"byteLength":2784,
			"byteOffset":36508,
			"target":34962
		},
		{
			"buffer":0,
			"byteLength":2784,
			"byteOffset":39292,
			"target":34962
		},
		{
			"buffer":0,
			"byteLength":1856,
			"byteOffset":42076,
			"target":34962
		},
		{
			"buffer":0,
			"byteLength":2412,
			"byteOffset":43932,
			"target":34963
		}
	],
	"buffers":[
		{
			"byteLength":46344,
			"uri":"data:application/octet-stream;base64,"
		}
	]
}
