{
	"asset":{
		"generator":"Khronos glTF Blender I/O v4.1.63",
		"version":"2.0"
	},
	"scene":0,
	"scenes":[
		{
			"name":"Scene",
			"nodes":[
				0,
				1,
				2
			]
		}
	],
	"nodes":[
		{
			"mesh":0,
			"name":"Cube.016",
			"translation":[
				15.377857208251953,
				52.56748580932617,
				-0.43726158142089844
			]
		},
		{
			"mesh":1,
			"name":"Circle.015",
			"scale":[
				1.1885912418365479,
				0.9308752417564392,
				0.9308752417564392
			],
			"translation":[
				9.623991012573242,
				52.56748580932617,
				-9.334832191467285
			]
		},
		{
			"mesh":2,
			"name":"Cube.017",
			"translation":[
				15.331767082214355,
				52.49518585205078,
				-9.058649063110352
			]
		}
	],
	"materials":[
		{
			"doubleSided":true,
			"name":"cover",
			"pbrMetallicRoughness":{
				"baseColorFactor":[
					0.5093285441398621,
					0.10200992971658707,
					0.04049215465784073,
					1
				],
				"metallicFactor":0,
				"roughnessFactor":0.5
			}
		},
		{
			"doubleSided":true,
			"name":"paperside",
			"pbrMetallicRoughness":{
				"baseColorFactor":[
					0.6183260679244995,
					0.8000074625015259,
					0.8000074625015259,
					1
				],
				"metallicFactor":0,
				"roughnessFactor":0.5
			}
		},
		{
			"doubleSided":true,
			"name":"paperTop",
			"pbrMetallicRoughness":{
				"baseColorFactor":[
					0.800000011920929,
					0.800000011920929,
					0.800000011920929,
					1
				],
				"metallicFactor":0,
				"roughnessFactor":0.5
			}
		},
		{
			"doubleSided":true,
			"name":"rings",
			"pbrMetallicRoughness":{
				"baseColorFactor":[
					0.27347373962402344,
					0.27347373962402344,
					0.27347373962402344,
					1
				],
				"roughnessFactor":0.5
			}
		}
	],
	"meshes":[
		{
			"name":"Cube.016",
			"primitives":[
				{
					"attributes":{
						"POSITION":0,
						"NORMAL":1,
						"TEXCOORD_0":2
					},
					"indices":3,
					"material":0
				},
				{
					"attributes":{
						"POSITION":4,
						"NORMAL":5,
						"TEXCOORD_0":6
					},
					"indices":7,
					"material":1
				},
				{
					"attributes":{
						"POSITION":8,
						"NORMAL":9,
						"TEXCOORD_0":10
					},
					"indices":11,
					"material":2
				}
			]
		},
		{
			"name":"Circle.016",
			"primitives":[
				{
					"attributes":{
						"POSITION":12,
						"NORMAL":13,
						"TEXCOORD_0":14
					},
					"indices":15,
					"material":3
				}
			]
		},
		{
			"name":"Cube.017",
			"primitives":[
				{
					"attributes":{
						"POSITION":16,
						"NORMAL":17,
						"TEXCOORD_0":18
					},
					"indices":19,
					"material":0
				}
			]
		}
	],
	"accessors":[
		{
			"bufferView":0,
			"componentType":5126,
			"count":230,
			"max":[
				5.9937262535095215,
				-0.4540027976036072,
				8.707280158996582
			],
			"min":[
				-5.9937262535095215,
				-0.5569129586219788,
				-8.707280158996582
			],
			"type":"VEC3"
		},
		{
			"bufferView":1,
			"componentType":5126,
			"count":230,
			"type":"VEC3"
		},
		{
			"bufferView":2,
			"componentType":5126,
			"count":230,
			"type":"VEC2"
		},
		{
			"bufferView":3,
			"componentType":5123,
			"count":474,
			"type":"SCALAR"
		},
		{
			"bufferView":4,
			"componentType":5126,
			"count":176,
			"max":[
				5.791363716125488,
				0.4588286876678467,
				8.621370315551758
			],
			"min":[
				-5.791363716125488,
				-0.4588257074356079,
				-8.621370315551758
			],
			"type":"VEC3"
		},
		{
			"bufferView":5,
			"componentType":5126,
			"count":176,
			"type":"VEC3"
		},
		{
			"bufferView":6,
			"componentType":5126,
			"count":176,
			"type":"VEC2"
		},
		{
			"bufferView":7,
			"componentType":5123,
			"count":264,
			"type":"SCALAR"
		},
		{
			"bufferView":8,
			"componentType":5126,
			"count":44,
			"max":[
				5.791363716125488,
				0.4588286876678467,
				8.621370315551758
			],
			"min":[
				-5.791363716125488,
				0.4588286876678467,
				-8.621370315551758
			],
			"type":"VEC3"
		},
		{
			"bufferView":9,
			"componentType":5126,
			"count":44,
			"type":"VEC3"
		},
		{
			"bufferView":10,
			"componentType":5126,
			"count":44,
			"type":"VEC2"
		},
		{
			"bufferView":11,
			"componentType":5123,
			"count":186,
			"type":"SCALAR"
		},
		{
			"bufferView":12,
			"componentType":5126,
			"count":1280,
			"max":[
				9.489214897155762,
				0.997564971446991,
				1.0000001192092896
			],
			"min":[
				0.09642280638217926,
				-1.0007108449935913,
				-1
			],
			"type":"VEC3"
		},
		{
			"bufferView":13,
			"componentType":5126,
			"count":1280,
			"type":"VEC3"
		},
		{
			"bufferView":14,
			"componentType":5126,
			"count":1280,
			"type":"VEC2"
		},
		{
			"bufferView":15,
			"componentType":5123,
			"count":7680,
			"type":"SCALAR"
		},
		{
			"bufferView":16,
			"componentType":5126,
			"count":264,
			"max":[
				6.039816379547119,
				0.629209578037262,
				17.32866859436035
			],
			"min":[
				-5.947636127471924,
				0.5311286449432373,
				-0.0858926773071289
			],
			"type":"VEC3"
		},
		{
			"bufferView":17,
			"componentType":5126,
			"count":264,
			"type":"VEC3"
		},
		{
			"bufferView":18,
			"componentType":5126,
			"count":264,
			"type":"VEC2"
		},
		{
			"bufferView":19,
			"componentType":5123,
			"count":636,
			"type":"SCALAR"
		}
	],
	"bufferViews":[
		{
			"buffer":0,
			"byteLength":2760,
			"byteOffset":0,
			"target":34962
		},
		{
			"buffer":0,
			"byteLength":2760,
			"byteOffset":2760,
			"target":34962
		},
		{
			"buffer":0,
			"byteLength":1840,
			"byteOffset":5520,
			"target":34962
		},
		{
			"buffer":0,
			"byteLength":948,
			"byteOffset":7360,
			"target":34963
		},
		{
			"buffer":0,
			"byteLength":2112,
			"byteOffset":8308,
			"target":34962
		},
		{
			"buffer":0,
			"byteLength":2112,
			"byteOffset":10420,
			"target":34962
		},
		{
			"buffer":0,
			"byteLength":1408,
			"byteOffset":12532,
			"target":34962
		},
		{
			"buffer":0,
			"byteLength":528,
			"byteOffset":13940,
			"target":34963
		},
		{
			"buffer":0,
			"byteLength":528,
			"byteOffset":14468,
			"target":34962
		},
		{
			"buffer":0,
			"byteLength":528,
			"byteOffset":14996,
			"target":34962
		},
		{
			"buffer":0,
			"byteLength":352,
			"byteOffset":15524,
			"target":34962
		},
		{
			"buffer":0,
			"byteLength":372,
			"byteOffset":15876,
			"target":34963
		},
		{
			"buffer":0,
			"byteLength":15360,
			"byteOffset":16248,
			"target":34962
		},
		{
			"buffer":0,
			"byteLength":15360,
			"byteOffset":31608,
			"target":34962
		},
		{
			"buffer":0,
			"byteLength":10240,
			"byteOffset":46968,
			"target":34962
		},
		{
			"buffer":0,
			"byteLength":15360,
			"byteOffset":57208,
			"target":34963
		},
		{
			"buffer":0,
			"byteLength":3168,
			"byteOffset":72568,
			"target":34962
		},
		{
			"buffer":0,
			"byteLength":3168,
			"byteOffset":75736,
			"target":34962
		},
		{
			"buffer":0,
			"byteLength":2112,
			"byteOffset":78904,
			"target":34962
		},
		{
			"buffer":0,
			"byteLength":1272,
			"byteOffset":81016,
			"target":34963
		}
	],
	"buffers":[
		{
			"byteLength":82288,
			"uri":"data:application/octet-stream;base64,"
		}
	]
}
