{
	"asset":{
		"generator":"Khronos glTF Blender I/O v4.1.63",
		"version":"2.0"
	},
	"scene":0,
	"scenes":[
		{
			"name":"Scene",
			"nodes":[
				5
			]
		}
	],
	"nodes":[
		{
			"name":"Bone.002",
			"rotation":[
				0.06699123233556747,
				1.1894147178281855e-07,
				-7.985974548319064e-09,
				0.9977536201477051
			],
			"translation":[
				-2.6239572987292112e-14,
				3.581338882446289,
				1.4901161193847656e-07
			]
		},
		{
			"children":[
				0
			],
			"name":"Bone.001",
			"rotation":[
				0.029856448993086815,
				-1.1915614805957375e-07,
				-3.5591660729750174e-09,
				0.9995541572570801
			],
			"translation":[
				1.3234889800848443e-23,
				3.891050338745117,
				1.1920928955078125e-07
			]
		},
		{
			"children":[
				1
			],
			"name":"Bone",
			"rotation":[
				-0.8838910460472107,
				6.731785745625181e-17,
				6.731784422136201e-17,
				0.46769294142723083
			],
			"scale":[
				1,
				0.9999999403953552,
				1
			]
		},
		{
			"name":"Bone.003",
			"rotation":[
				8.27979818041058e-08,
				-0.9050789475440979,
				-0.42524364590644836,
				1.762253987180884e-07
			],
			"scale":[
				1,
				0.9999997019767761,
				0.9999995231628418
			]
		},
		{
			"mesh":0,
			"name":"mesh",
			"skin":0
		},
		{
			"children":[
				4,
				2,
				3
			],
			"name":"Armature"
		}
	],
	"animations":[
		{
			"channels":[
				{
					"sampler":0,
					"target":{
						"node":2,
						"path":"translation"
					}
				},
				{
					"sampler":1,
					"target":{
						"node":2,
						"path":"rotation"
					}
				},
				{
					"sampler":2,
					"target":{
						"node":2,
						"path":"scale"
					}
				},
				{
					"sampler":3,
					"target":{
						"node":1,
						"path":"translation"
					}
				},
				{
					"sampler":4,
					"target":{
						"node":1,
						"path":"rotation"
					}
				},
				{
					"sampler":5,
					"target":{
						"node":1,
						"path":"scale"
					}
				},
				{
					"sampler":6,
					"target":{
						"node":0,
						"path":"translation"
					}
				},
				{
					"sampler":7,
					"target":{
						"node":0,
						"path":"rotation"
					}
				},
				{
					"sampler":8,
					"target":{
						"node":0,
						"path":"scale"
					}
				},
				{
					"sampler":9,
					"target":{
						"node":3,
						"path":"translation"
					}
				},
				{
					"sampler":10,
					"target":{
						"node":3,
						"path":"rotation"
					}
				},
				{
					"sampler":11,
					"target":{
						"node":3,
						"path":"scale"
					}
				}
			],
			"name":"Airborne",
			"samplers":[
				{
					"input":7,
					"interpolation":"STEP",
					"output":8
				},
				{
					"input":9,
					"interpolation":"LINEAR",
					"output":10
				},
				{
					"input":7,
					"interpolation":"STEP",
					"output":11
				},
				{
					"input":7,
					"interpolation":"LINEAR",
					"output":12
				},
				{
					"input":9,
					"interpolation":"LINEAR",
					"output":13
				},
				{
					"input":7,
					"interpolation":"STEP",
					"output":14
				},
				{
					"input":7,
					"interpolation":"LINEAR",
					"output":15
				},
				{
					"input":9,
					"interpolation":"LINEAR",
					"output":16
				},
				{
					"input":7,
					"interpolation":"STEP",
					"output":17
				},
				{
					"input":7,
					"interpolation":"STEP",
					"output":18
				},
				{
					"input":9,
					"interpolation":"LINEAR",
					"output":19
				},
				{
					"input":7,
					"interpolation":"STEP",
					"output":20
				}
			]
		},
		{
			"channels":[
				{
					"sampler":0,
					"target":{
						"node":2,
						"path":"translation"
					}
				},
				{
					"sampler":1,
					"target":{
						"node":2,
						"path":"rotation"
					}
				},
				{
					"sampler":2,
					"target":{
						"node":2,
						"path":"scale"
					}
				},
				{
					"sampler":3,
					"target":{
						"node":1,
						"path":"translation"
					}
				},
				{
					"sampler":4,
					"target":{
						"node":1,
						"path":"rotation"
					}
				},
				{
					"sampler":5,
					"target":{
						"node":1,
						"path":"scale"
					}
				},
				{
					"sampler":6,
					"target":{
						"node":0,
						"path":"translation"
					}
				},
				{
					"sampler":7,
					"target":{
						"node":0,
						"path":"rotation"
					}
				},
				{
					"sampler":8,
					"target":{
						"node":0,
						"path":"scale"
					}
				},
				{
					"sampler":9,
					"target":{
						"node":3,
						"path":"translation"
					}
				},
				{
					"sampler":10,
					"target":{
						"node":3,
						"path":"rotation"
					}
				},
				{
					"sampler":11,
					"target":{
						"node":3,
						"path":"scale"
					}
				}
			],
			"name":"Idle",
			"samplers":[
				{
					"input":21,
					"interpolation":"STEP",
					"output":22
				},
				{
					"input":23,
					"interpolation":"LINEAR",
					"output":24
				},
				{
					"input":21,
					"interpolation":"STEP",
					"output":25
				},
				{
					"input":21,
					"interpolation":"LINEAR",
					"output":26
				},
				{
					"input":23,
					"interpolation":"LINEAR",
					"output":27
				},
				{
					"input":21,
					"interpolation":"LINEAR",
					"output":28
				},
				{
					"input":21,
					"interpolation":"LINEAR",
					"output":29
				},
				{
					"input":23,
					"interpolation":"LINEAR",
					"output":30
				},
				{
					"input":21,
					"interpolation":"LINEAR",
					"output":31
				},
				{
					"input":21,
					"interpolation":"STEP",
					"output":32
				},
				{
					"input":23,
					"interpolation":"LINEAR",
					"output":33
				},
				{
					"input":21,
					"interpolation":"STEP",
					"output":34
				}
			]
		}
	],
	"materials":[
		{
			"alphaMode":"BLEND",
			"emissiveFactor":[
				1,
				1,
				1
			],
			"emissiveTexture":{
				"index":0
			},
			"name":"Mat_Blob",
			"pbrMetallicRoughness":{
				"baseColorFactor":[
					0,
					0,
					0,
					1
				]
			}
		}
	],
	"meshes":[
		{
			"name":"RetopoFlow",
			"primitives":[
				{
					"attributes":{
						"POSITION":0,
						"NORMAL":1,
						"TEXCOORD_0":2,
						"JOINTS_0":3,
						"WEIGHTS_0":4
					},
					"indices":5,
					"material":0
				}
			]
		}
	],
	"textures":[
		{
			"sampler":0,
			"source":0
		}
	],
	"images":[
		{
			"bufferView":6,
			"mimeType":"image/png",
			"name":"New Group 1_bake"
		}
	],
	"skins":[
		{
			"inverseBindMatrices":6,
			"joints":[
				2,
				1,
				0,
				3
			],
			"name":"Armature"
		}
	],
	"accessors":[
		{
			"bufferView":0,
			"componentType":5126,
			"count":2358,
			"max":[
				5.401315212249756,
				5.576998710632324,
				5.371465682983398
			],
			"min":[
				-5.401315212249756,
				-6.9276041984558105,
				-10.25546932220459
			],
			"type":"VEC3"
		},
		{
			"bufferView":1,
			"componentType":5126,
			"count":2358,
			"type":"VEC3"
		},
		{
			"bufferView":2,
			"componentType":5126,
			"count":2358,
			"type":"VEC2"
		},
		{
			"bufferView":3,
			"componentType":5121,
			"count":2358,
			"type":"VEC4"
		},
		{
			"bufferView":4,
			"componentType":5126,
			"count":2358,
			"type":"VEC4"
		},
		{
			"bufferView":5,
			"componentType":5123,
			"count":6288,
			"type":"SCALAR"
		},
		{
			"bufferView":7,
			"componentType":5126,
			"count":4,
			"type":"MAT4"
		},
		{
			"bufferView":8,
			"componentType":5126,
			"count":2,
			"max":[
				1.2916666666666667
			],
			"min":[
				0
			],
			"type":"SCALAR"
		},
		{
			"bufferView":9,
			"componentType":5126,
			"count":2,
			"type":"VEC3"
		},
		{
			"bufferView":10,
			"componentType":5126,
			"count":32,
			"max":[
				1.2916666666666667
			],
			"min":[
				0
			],
			"type":"SCALAR"
		},
		{
			"bufferView":11,
			"componentType":5126,
			"count":32,
			"type":"VEC4"
		},
		{
			"bufferView":12,
			"componentType":5126,
			"count":2,
			"type":"VEC3"
		},
		{
			"bufferView":13,
			"componentType":5126,
			"count":2,
			"type":"VEC3"
		},
		{
			"bufferView":14,
			"componentType":5126,
			"count":32,
			"type":"VEC4"
		},
		{
			"bufferView":15,
			"componentType":5126,
			"count":2,
			"type":"VEC3"
		},
		{
			"bufferView":16,
			"componentType":5126,
			"count":2,
			"type":"VEC3"
		},
		{
			"bufferView":17,
			"componentType":5126,
			"count":32,
			"type":"VEC4"
		},
		{
			"bufferView":18,
			"componentType":5126,
			"count":2,
			"type":"VEC3"
		},
		{
			"bufferView":19,
			"componentType":5126,
			"count":2,
			"type":"VEC3"
		},
		{
			"bufferView":20,
			"componentType":5126,
			"count":32,
			"type":"VEC4"
		},
		{
			"bufferView":21,
			"componentType":5126,
			"count":2,
			"type":"VEC3"
		},
		{
			"bufferView":22,
			"componentType":5126,
			"count":2,
			"max":[
				4.166666666666667
			],
			"min":[
				0
			],
			"type":"SCALAR"
		},
		{
			"bufferView":23,
			"componentType":5126,
			"count":2,
			"type":"VEC3"
		},
		{
			"bufferView":24,
			"componentType":5126,
			"count":101,
			"max":[
				4.166666666666667
			],
			"min":[
				0
			],
			"type":"SCALAR"
		},
		{
			"bufferView":25,
			"componentType":5126,
			"count":101,
			"type":"VEC4"
		},
		{
			"bufferView":26,
			"componentType":5126,
			"count":2,
			"type":"VEC3"
		},
		{
			"bufferView":27,
			"componentType":5126,
			"count":2,
			"type":"VEC3"
		},
		{
			"bufferView":28,
			"componentType":5126,
			"count":101,
			"type":"VEC4"
		},
		{
			"bufferView":29,
			"componentType":5126,
			"count":2,
			"type":"VEC3"
		},
		{
			"bufferView":30,
			"componentType":5126,
			"count":2,
			"type":"VEC3"
		},
		{
			"bufferView":31,
			"componentType":5126,
			"count":101,
			"type":"VEC4"
		},
		{
			"bufferView":32,
			"componentType":5126,
			"count":2,
			"type":"VEC3"
		},
		{
			"bufferView":33,
			"componentType":5126,
			"count":2,
			"type":"VEC3"
		},
		{
			"bufferView":34,
			"componentType":5126,
			"count":101,
			"type":"VEC4"
		},
		{
			"bufferView":35,
			"componentType":5126,
			"count":2,
			"type":"VEC3"
		}
	],
	"bufferViews":[
		{
			"buffer":0,
			"byteLength":28296,
			"byteOffset":0,
			"target":34962
		},
		{
			"buffer":0,
			"byteLength":28296,
			"byteOffset":28296,
			"target":34962
		},
		{
			"buffer":0,
			"byteLength":18864,
			"byteOffset":56592,
			"target":34962
		},
		{
			"buffer":0,
			"byteLength":9432,
			"byteOffset":75456,
			"target":34962
		},
		{
			"buffer":0,
			"byteLength":37728,
			"byteOffset":84888,
			"target":34962
		},
		{
			"buffer":0,
			"byteLength":12576,
			"byteOffset":122616,
			"target":34963
		},
		{
			"buffer":0,
			"byteLength":991829,
			"byteOffset":135192
		},
		{
			"buffer":0,
			"byteLength":256,
			"byteOffset":1127024
		},
		{
			"buffer":0,
			"byteLength":8,
			"byteOffset":1127280
		},
		{
			"buffer":0,
			"byteLength":24,
			"byteOffset":1127288
		},
		{
			"buffer":0,
			"byteLength":128,
			"byteOffset":1127312
		},
		{
			"buffer":0,
			"byteLength":512,
			"byteOffset":1127440
		},
		{
			"buffer":0,
			"byteLength":24,
			"byteOffset":1127952
		},
		{
			"buffer":0,
			"byteLength":24,
			"byteOffset":1127976
		},
		{
			"buffer":0,
			"byteLength":512,
			"byteOffset":1128000
		},
		{
			"buffer":0,
			"byteLength":24,
			"byteOffset":1128512
		},
		{
			"buffer":0,
			"byteLength":24,
			"byteOffset":1128536
		},
		{
			"buffer":0,
			"byteLength":512,
			"byteOffset":1128560
		},
		{
			"buffer":0,
			"byteLength":24,
			"byteOffset":1129072
		},
		{
			"buffer":0,
			"byteLength":24,
			"byteOffset":1129096
		},
		{
			"buffer":0,
			"byteLength":512,
			"byteOffset":1129120
		},
		{
			"buffer":0,
			"byteLength":24,
			"byteOffset":1129632
		},
		{
			"buffer":0,
			"byteLength":8,
			"byteOffset":1129656
		},
		{
			"buffer":0,
			"byteLength":24,
			"byteOffset":1129664
		},
		{
			"buffer":0,
			"byteLength":404,
			"byteOffset":1129688
		},
		{
			"buffer":0,
			"byteLength":1616,
			"byteOffset":1130092
		},
		{
			"buffer":0,
			"byteLength":24,
			"byteOffset":1131708
		},
		{
			"buffer":0,
			"byteLength":24,
			"byteOffset":1131732
		},
		{
			"buffer":0,
			"byteLength":1616,
			"byteOffset":1131756
		},
		{
			"buffer":0,
			"byteLength":24,
			"byteOffset":1133372
		},
		{
			"buffer":0,
			"byteLength":24,
			"byteOffset":1133396
		},
		{
			"buffer":0,
			"byteLength":1616,
			"byteOffset":1133420
		},
		{
			"buffer":0,
			"byteLength":24,
			"byteOffset":1135036
		},
		{
			"buffer":0,
			"byteLength":24,
			"byteOffset":1135060
		},
		{
			"buffer":0,
			"byteLength":1616,
			"byteOffset":1135084
		},
		{
			"buffer":0,
			"byteLength":24,
			"byteOffset":1136700
		}
	],
	"samplers":[
		{
			"magFilter":9728,
			"minFilter":9984
		}
	],
	"buffers":[
		{
			"byteLength":1136724,
			"uri":"data:application/octet-stream;base64,"
		}
	]
}
