{
	"asset":{
		"generator":"Khronos glTF Blender I/O v4.1.63",
		"version":"2.0"
	},
	"scene":0,
	"scenes":[
		{
			"name":"Scene",
			"nodes":[
				0
			]
		}
	],
	"nodes":[
		{
			"mesh":0,
			"name":"Circle.010",
			"translation":[
				-0.031135976314544678,
				2,
				0.061667799949645996
			]
		}
	],
	"materials":[
		{
			"doubleSided":true,
			"name":"wood",
			"pbrMetallicRoughness":{
				"baseColorFactor":[
					0.5961487889289856,
					0.3963223099708557,
					0.14001116156578064,
					1
				],
				"metallicFactor":0,
				"roughnessFactor":0.5
			}
		},
		{
			"doubleSided":true,
			"name":"led",
			"pbrMetallicRoughness":{
				"baseColorFactor":[
					0,
					0,
					0,
					1
				],
				"metallicFactor":0,
				"roughnessFactor":0.5
			}
		},
		{
			"doubleSided":true,
			"name":"pencilBody",
			"pbrMetallicRoughness":{
				"baseColorFactor":[
					0.8001260757446289,
					0.708216667175293,
					0.03246047720313072,
					1
				],
				"metallicFactor":0,
				"roughnessFactor":0.5
			}
		},
		{
			"doubleSided":true,
			"name":"pencilMetal",
			"pbrMetallicRoughness":{
				"baseColorFactor":[
					0.05156350135803223,
					0.8002511262893677,
					0.048750706017017365,
					1
				],
				"metallicFactor":0,
				"roughnessFactor":0.5
			}
		},
		{
			"doubleSided":true,
			"name":"erasure",
			"pbrMetallicRoughness":{
				"baseColorFactor":[
					0.8002041578292847,
					0.08926227688789368,
					0.6536070108413696,
					1
				],
				"metallicFactor":0,
				"roughnessFactor":0.5
			}
		}
	],
	"meshes":[
		{
			"name":"Circle.011",
			"primitives":[
				{
					"attributes":{
						"POSITION":0,
						"NORMAL":1,
						"TEXCOORD_0":2
					},
					"indices":3,
					"material":0
				},
				{
					"attributes":{
						"POSITION":4,
						"NORMAL":5,
						"TEXCOORD_0":6
					},
					"indices":7,
					"material":1
				},
				{
					"attributes":{
						"POSITION":8,
						"NORMAL":9,
						"TEXCOORD_0":10
					},
					"indices":11,
					"material":2
				},
				{
					"attributes":{
						"POSITION":12,
						"NORMAL":13,
						"TEXCOORD_0":14
					},
					"indices":15,
					"material":3
				},
				{
					"attributes":{
						"POSITION":16,
						"NORMAL":17,
						"TEXCOORD_0":18
					},
					"indices":19,
					"material":4
				}
			]
		}
	],
	"accessors":[
		{
			"bufferView":0,
			"componentType":5126,
			"count":80,
			"max":[
				0.4063628911972046,
				11.041288375854492,
				0.4063628911972046
			],
			"min":[
				-0.4063628315925598,
				10.418474197387695,
				-0.4063628911972046
			],
			"type":"VEC3"
		},
		{
			"bufferView":1,
			"componentType":5126,
			"count":80,
			"type":"VEC3"
		},
		{
			"bufferView":2,
			"componentType":5126,
			"count":80,
			"type":"VEC2"
		},
		{
			"bufferView":3,
			"componentType":5123,
			"count":288,
			"type":"SCALAR"
		},
		{
			"bufferView":4,
			"componentType":5126,
			"count":33,
			"max":[
				0.11940363049507141,
				11.338939666748047,
				0.1194036453962326
			],
			"min":[
				-0.1194036453962326,
				11.041288375854492,
				-0.11940363049507141
			],
			"type":"VEC3"
		},
		{
			"bufferView":5,
			"componentType":5126,
			"count":33,
			"type":"VEC3"
		},
		{
			"bufferView":6,
			"componentType":5126,
			"count":33,
			"type":"VEC2"
		},
		{
			"bufferView":7,
			"componentType":5123,
			"count":144,
			"type":"SCALAR"
		},
		{
			"bufferView":8,
			"componentType":5126,
			"count":48,
			"max":[
				0.4063628911972046,
				10.418474197387695,
				0.4063628911972046
			],
			"min":[
				-0.4063628315925598,
				-2.6087920665740967,
				-0.4063628911972046
			],
			"type":"VEC3"
		},
		{
			"bufferView":9,
			"componentType":5126,
			"count":48,
			"type":"VEC3"
		},
		{
			"bufferView":10,
			"componentType":5126,
			"count":48,
			"type":"VEC2"
		},
		{
			"bufferView":11,
			"componentType":5123,
			"count":96,
			"type":"SCALAR"
		},
		{
			"bufferView":12,
			"componentType":5126,
			"count":352,
			"max":[
				0.42165255546569824,
				-2.6087920665740967,
				0.42165255546569824
			],
			"min":[
				-0.42165249586105347,
				-4.142705917358398,
				-0.42165255546569824
			],
			"type":"VEC3"
		},
		{
			"bufferView":13,
			"componentType":5126,
			"count":352,
			"type":"VEC3"
		},
		{
			"bufferView":14,
			"componentType":5126,
			"count":352,
			"type":"VEC2"
		},
		{
			"bufferView":15,
			"componentType":5123,
			"count":1056,
			"type":"SCALAR"
		},
		{
			"bufferView":16,
			"componentType":5126,
			"count":64,
			"max":[
				0.3966151177883148,
				-4.142705917358398,
				0.3966151177883148
			],
			"min":[
				-0.39661505818367004,
				-4.854204177856445,
				-0.3966151177883148
			],
			"type":"VEC3"
		},
		{
			"bufferView":17,
			"componentType":5126,
			"count":64,
			"type":"VEC3"
		},
		{
			"bufferView":18,
			"componentType":5126,
			"count":64,
			"type":"VEC2"
		},
		{
			"bufferView":19,
			"componentType":5123,
			"count":330,
			"type":"SCALAR"
		}
	],
	"bufferViews":[
		{
			"buffer":0,
			"byteLength":960,
			"byteOffset":0,
			"target":34962
		},
		{
			"buffer":0,
			"byteLength":960,
			"byteOffset":960,
			"target":34962
		},
		{
			"buffer":0,
			"byteLength":640,
			"byteOffset":1920,
			"target":34962
		},
		{
			"buffer":0,
			"byteLength":576,
			"byteOffset":2560,
			"target":34963
		},
		{
			"buffer":0,
			"byteLength":396,
			"byteOffset":3136,
			"target":34962
		},
		{
			"buffer":0,
			"byteLength":396,
			"byteOffset":3532,
			"target":34962
		},
		{
			"buffer":0,
			"byteLength":264,
			"byteOffset":3928,
			"target":34962
		},
		{
			"buffer":0,
			"byteLength":288,
			"byteOffset":4192,
			"target":34963
		},
		{
			"buffer":0,
			"byteLength":576,
			"byteOffset":4480,
			"target":34962
		},
		{
			"buffer":0,
			"byteLength":576,
			"byteOffset":5056,
			"target":34962
		},
		{
			"buffer":0,
			"byteLength":384,
			"byteOffset":5632,
			"target":34962
		},
		{
			"buffer":0,
			"byteLength":192,
			"byteOffset":6016,
			"target":34963
		},
		{
			"buffer":0,
			"byteLength":4224,
			"byteOffset":6208,
			"target":34962
		},
		{
			"buffer":0,
			"byteLength":4224,
			"byteOffset":10432,
			"target":34962
		},
		{
			"buffer":0,
			"byteLength":2816,
			"byteOffset":14656,
			"target":34962
		},
		{
			"buffer":0,
			"byteLength":2112,
			"byteOffset":17472,
			"target":34963
		},
		{
			"buffer":0,
			"byteLength":768,
			"byteOffset":19584,
			"target":34962
		},
		{
			"buffer":0,
			"byteLength":768,
			"byteOffset":20352,
			"target":34962
		},
		{
			"buffer":0,
			"byteLength":512,
			"byteOffset":21120,
			"target":34962
		},
		{
			"buffer":0,
			"byteLength":660,
			"byteOffset":21632,
			"target":34963
		}
	],
	"buffers":[
		{
			"byteLength":22292,
			"uri":"data:application/octet-stream;base64,"
		}
	]
}
