{
	"asset":{
		"generator":"Khronos glTF Blender I/O v4.1.63",
		"version":"2.0"
	},
	"scene":0,
	"scenes":[
		{
			"name":"Scene",
			"nodes":[
				0
			]
		}
	],
	"nodes":[
		{
			"mesh":0,
			"name":"16by9canvas",
			"rotation":[
				0,
				0,
				-0.7071066498756409,
				0.7071069478988647
			],
			"scale":[
				1.7770709991455078,
				0.11106693744659424,
				0.9996025562286377
			],
			"translation":[
				-1.1984267234802246,
				0.7440547943115234,
				10.658130645751953
			]
		}
	],
	"materials":[
		{
			"doubleSided":true,
			"name":"wood",
			"pbrMetallicRoughness":{
				"baseColorFactor":[
					0.5961487889289856,
					0.3963223099708557,
					0.14001116156578064,
					1
				],
				"metallicFactor":0,
				"roughnessFactor":0.5
			}
		},
		{
			"doubleSided":true,
			"name":"canvasback",
			"pbrMetallicRoughness":{
				"baseColorFactor":[
					0.4400317668914795,
					0.5673596262931824,
					0.5961490273475647,
					1
				],
				"metallicFactor":0,
				"roughnessFactor":0.5
			}
		},
		{
			"doubleSided":true,
			"name":"painting",
			"pbrMetallicRoughness":{
				"baseColorFactor":[
					0.800000011920929,
					0.800000011920929,
					0.800000011920929,
					1
				],
				"metallicFactor":0,
				"roughnessFactor":0.5
			}
		},
		{
			"doubleSided":true,
			"name":"staple",
			"pbrMetallicRoughness":{
				"baseColorFactor":[
					0.2951948642730713,
					0.2951948642730713,
					0.2951948642730713,
					1
				],
				"roughnessFactor":0.5
			}
		}
	],
	"meshes":[
		{
			"name":"Plane.004",
			"primitives":[
				{
					"attributes":{
						"POSITION":0,
						"NORMAL":1,
						"TEXCOORD_0":2
					},
					"indices":3,
					"material":0
				},
				{
					"attributes":{
						"POSITION":4,
						"NORMAL":5,
						"TEXCOORD_0":6
					},
					"indices":7,
					"material":1
				},
				{
					"attributes":{
						"POSITION":8,
						"NORMAL":9,
						"TEXCOORD_0":10
					},
					"indices":11,
					"material":2
				},
				{
					"attributes":{
						"POSITION":12,
						"NORMAL":13,
						"TEXCOORD_0":14
					},
					"indices":15,
					"material":3
				}
			]
		}
	],
	"accessors":[
		{
			"bufferView":0,
			"componentType":5126,
			"count":32,
			"max":[
				0.9938268661499023,
				-0.5302228927612305,
				0.988052487373352
			],
			"min":[
				-0.12572497129440308,
				-1.350886583328247,
				-0.988052487373352
			],
			"type":"VEC3"
		},
		{
			"bufferView":1,
			"componentType":5126,
			"count":32,
			"type":"VEC3"
		},
		{
			"bufferView":2,
			"componentType":5126,
			"count":32,
			"type":"VEC2"
		},
		{
			"bufferView":3,
			"componentType":5123,
			"count":48,
			"type":"SCALAR"
		},
		{
			"bufferView":4,
			"componentType":5126,
			"count":646,
			"max":[
				0.9979282021522522,
				-0.05891990289092064,
				1.0000007152557373
			],
			"min":[
				-0.12830987572669983,
				-1.387237787246704,
				-1.0000007152557373
			],
			"type":"VEC3"
		},
		{
			"bufferView":5,
			"componentType":5126,
			"count":646,
			"type":"VEC3"
		},
		{
			"bufferView":6,
			"componentType":5126,
			"count":646,
			"type":"VEC2"
		},
		{
			"bufferView":7,
			"componentType":5123,
			"count":1554,
			"type":"SCALAR"
		},
		{
			"bufferView":8,
			"componentType":5126,
			"count":144,
			"max":[
				0.9979282021522522,
				7.166472641984001e-07,
				1.0000007152557373
			],
			"min":[
				-0.12830987572669983,
				-0.058922525495290756,
				-1.0000007152557373
			],
			"type":"VEC3"
		},
		{
			"bufferView":9,
			"componentType":5126,
			"count":144,
			"type":"VEC3"
		},
		{
			"bufferView":10,
			"componentType":5126,
			"count":144,
			"type":"VEC2"
		},
		{
			"bufferView":11,
			"componentType":5123,
			"count":234,
			"type":"SCALAR"
		},
		{
			"bufferView":12,
			"componentType":5126,
			"count":576,
			"max":[
				0.9946081042289734,
				-1.3526936769485474,
				0.989007294178009
			],
			"min":[
				-0.12609058618545532,
				-1.4216045141220093,
				-0.9873105883598328
			],
			"type":"VEC3"
		},
		{
			"bufferView":13,
			"componentType":5126,
			"count":576,
			"type":"VEC3"
		},
		{
			"bufferView":14,
			"componentType":5126,
			"count":576,
			"type":"VEC2"
		},
		{
			"bufferView":15,
			"componentType":5123,
			"count":864,
			"type":"SCALAR"
		}
	],
	"bufferViews":[
		{
			"buffer":0,
			"byteLength":384,
			"byteOffset":0,
			"target":34962
		},
		{
			"buffer":0,
			"byteLength":384,
			"byteOffset":384,
			"target":34962
		},
		{
			"buffer":0,
			"byteLength":256,
			"byteOffset":768,
			"target":34962
		},
		{
			"buffer":0,
			"byteLength":96,
			"byteOffset":1024,
			"target":34963
		},
		{
			"buffer":0,
			"byteLength":7752,
			"byteOffset":1120,
			"target":34962
		},
		{
			"buffer":0,
			"byteLength":7752,
			"byteOffset":8872,
			"target":34962
		},
		{
			"buffer":0,
			"byteLength":5168,
			"byteOffset":16624,
			"target":34962
		},
		{
			"buffer":0,
			"byteLength":3108,
			"byteOffset":21792,
			"target":34963
		},
		{
			"buffer":0,
			"byteLength":1728,
			"byteOffset":24900,
			"target":34962
		},
		{
			"buffer":0,
			"byteLength":1728,
			"byteOffset":26628,
			"target":34962
		},
		{
			"buffer":0,
			"byteLength":1152,
			"byteOffset":28356,
			"target":34962
		},
		{
			"buffer":0,
			"byteLength":468,
			"byteOffset":29508,
			"target":34963
		},
		{
			"buffer":0,
			"byteLength":6912,
			"byteOffset":29976,
			"target":34962
		},
		{
			"buffer":0,
			"byteLength":6912,
			"byteOffset":36888,
			"target":34962
		},
		{
			"buffer":0,
			"byteLength":4608,
			"byteOffset":43800,
			"target":34962
		},
		{
			"buffer":0,
			"byteLength":1728,
			"byteOffset":48408,
			"target":34963
		}
	],
	"buffers":[
		{
			"byteLength":50136,
			"uri":"data:application/octet-stream;base64,"
		}
	]
}
