{
	"asset":{
		"generator":"Khronos glTF Blender I/O v4.1.63",
		"version":"2.0"
	},
	"scene":0,
	"scenes":[
		{
			"name":"Scene",
			"nodes":[
				0
			]
		}
	],
	"nodes":[
		{
			"mesh":0,
			"name":"Circle.011",
			"translation":[
				-0.00026509910821914673,
				2,
				0.0014305785298347473
			]
		}
	],
	"materials":[
		{
			"doubleSided":true,
			"name":"painttube",
			"pbrMetallicRoughness":{
				"baseColorFactor":[
					0.800000011920929,
					0.800000011920929,
					0.800000011920929,
					1
				],
				"metallicFactor":0,
				"roughnessFactor":0.5
			}
		},
		{
			"doubleSided":true,
			"name":"paintTubeColor",
			"pbrMetallicRoughness":{
				"baseColorFactor":[
					0.0305887870490551,
					0.022560276091098785,
					0.8000074625015259,
					1
				],
				"metallicFactor":0,
				"roughnessFactor":0.5
			}
		}
	],
	"meshes":[
		{
			"name":"Circle.012",
			"primitives":[
				{
					"attributes":{
						"POSITION":0,
						"NORMAL":1,
						"TEXCOORD_0":2
					},
					"indices":3,
					"material":0
				},
				{
					"attributes":{
						"POSITION":4,
						"NORMAL":5,
						"TEXCOORD_0":6
					},
					"indices":7,
					"material":1
				}
			]
		}
	],
	"accessors":[
		{
			"bufferView":0,
			"componentType":5126,
			"count":432,
			"max":[
				1.9964264631271362,
				2.1050100326538086,
				1.550429105758667
			],
			"min":[
				-1.9964264631271362,
				-13.778305053710938,
				-1.550429105758667
			],
			"type":"VEC3"
		},
		{
			"bufferView":1,
			"componentType":5126,
			"count":432,
			"type":"VEC3"
		},
		{
			"bufferView":2,
			"componentType":5126,
			"count":432,
			"type":"VEC2"
		},
		{
			"bufferView":3,
			"componentType":5123,
			"count":1620,
			"type":"SCALAR"
		},
		{
			"bufferView":4,
			"componentType":5126,
			"count":32,
			"max":[
				1.6004189252853394,
				-0.5299741625785828,
				1.550429105758667
			],
			"min":[
				-1.600419044494629,
				-2.8414828777313232,
				-1.550429105758667
			],
			"type":"VEC3"
		},
		{
			"bufferView":5,
			"componentType":5126,
			"count":32,
			"type":"VEC3"
		},
		{
			"bufferView":6,
			"componentType":5126,
			"count":32,
			"type":"VEC2"
		},
		{
			"bufferView":7,
			"componentType":5123,
			"count":96,
			"type":"SCALAR"
		}
	],
	"bufferViews":[
		{
			"buffer":0,
			"byteLength":5184,
			"byteOffset":0,
			"target":34962
		},
		{
			"buffer":0,
			"byteLength":5184,
			"byteOffset":5184,
			"target":34962
		},
		{
			"buffer":0,
			"byteLength":3456,
			"byteOffset":10368,
			"target":34962
		},
		{
			"buffer":0,
			"byteLength":3240,
			"byteOffset":13824,
			"target":34963
		},
		{
			"buffer":0,
			"byteLength":384,
			"byteOffset":17064,
			"target":34962
		},
		{
			"buffer":0,
			"byteLength":384,
			"byteOffset":17448,
			"target":34962
		},
		{
			"buffer":0,
			"byteLength":256,
			"byteOffset":17832,
			"target":34962
		},
		{
			"buffer":0,
			"byteLength":192,
			"byteOffset":18088,
			"target":34963
		}
	],
	"buffers":[
		{
			"byteLength":18280,
			"uri":"data:application/octet-stream;base64,"
		}
	]
}
