{
	"asset":{
		"generator":"Khronos glTF Blender I/O v4.1.63",
		"version":"2.0"
	},
	"scene":0,
	"scenes":[
		{
			"name":"Scene",
			"nodes":[
				0
			]
		}
	],
	"nodes":[
		{
			"mesh":0,
			"name":"Circle.012",
			"translation":[
				-12.07209300994873,
				2,
				0.0014305785298347473
			]
		}
	],
	"materials":[
		{
			"doubleSided":true,
			"name":"painttube",
			"pbrMetallicRoughness":{
				"baseColorFactor":[
					0.800000011920929,
					0.800000011920929,
					0.800000011920929,
					1
				],
				"metallicFactor":0,
				"roughnessFactor":0.5
			}
		},
		{
			"doubleSided":true,
			"name":"paintTubeColor",
			"pbrMetallicRoughness":{
				"baseColorFactor":[
					0.0305887870490551,
					0.022560276091098785,
					0.8000074625015259,
					1
				],
				"metallicFactor":0,
				"roughnessFactor":0.5
			}
		}
	],
	"meshes":[
		{
			"name":"Circle.013",
			"primitives":[
				{
					"attributes":{
						"POSITION":0,
						"NORMAL":1,
						"TEXCOORD_0":2
					},
					"indices":3,
					"material":0
				},
				{
					"attributes":{
						"POSITION":4,
						"NORMAL":5,
						"TEXCOORD_0":6
					},
					"indices":7,
					"material":1
				}
			]
		}
	],
	"accessors":[
		{
			"bufferView":0,
			"componentType":5126,
			"count":496,
			"max":[
				2.1181368827819824,
				2.1050100326538086,
				4.386356830596924
			],
			"min":[
				-2.118136405944824,
				-4.517390251159668,
				-1.4520046710968018
			],
			"type":"VEC3"
		},
		{
			"bufferView":1,
			"componentType":5126,
			"count":496,
			"type":"VEC3"
		},
		{
			"bufferView":2,
			"componentType":5126,
			"count":496,
			"type":"VEC2"
		},
		{
			"bufferView":3,
			"componentType":5123,
			"count":2004,
			"type":"SCALAR"
		},
		{
			"bufferView":4,
			"componentType":5126,
			"count":48,
			"max":[
				1.812785029411316,
				-0.5302333831787109,
				1.4474685192108154
			],
			"min":[
				-1.8127859830856323,
				-2.9818027019500732,
				-1.4520046710968018
			],
			"type":"VEC3"
		},
		{
			"bufferView":5,
			"componentType":5126,
			"count":48,
			"type":"VEC3"
		},
		{
			"bufferView":6,
			"componentType":5126,
			"count":48,
			"type":"VEC2"
		},
		{
			"bufferView":7,
			"componentType":5123,
			"count":192,
			"type":"SCALAR"
		}
	],
	"bufferViews":[
		{
			"buffer":0,
			"byteLength":5952,
			"byteOffset":0,
			"target":34962
		},
		{
			"buffer":0,
			"byteLength":5952,
			"byteOffset":5952,
			"target":34962
		},
		{
			"buffer":0,
			"byteLength":3968,
			"byteOffset":11904,
			"target":34962
		},
		{
			"buffer":0,
			"byteLength":4008,
			"byteOffset":15872,
			"target":34963
		},
		{
			"buffer":0,
			"byteLength":576,
			"byteOffset":19880,
			"target":34962
		},
		{
			"buffer":0,
			"byteLength":576,
			"byteOffset":20456,
			"target":34962
		},
		{
			"buffer":0,
			"byteLength":384,
			"byteOffset":21032,
			"target":34962
		},
		{
			"buffer":0,
			"byteLength":384,
			"byteOffset":21416,
			"target":34963
		}
	],
	"buffers":[
		{
			"byteLength":21800,
			"uri":"data:application/octet-stream;base64,"
		}
	]
}
