{
	"asset":{
		"generator":"Khronos glTF Blender I/O v4.1.63",
		"version":"2.0"
	},
	"scene":0,
	"scenes":[
		{
			"name":"Scene",
			"nodes":[
				0
			]
		}
	],
	"nodes":[
		{
			"mesh":0,
			"name":"Cube.015",
			"translation":[
				0.0063533782958984375,
				52.56748580932617,
				-0.43726158142089844
			]
		}
	],
	"materials":[
		{
			"doubleSided":true,
			"name":"turpentineBottle",
			"pbrMetallicRoughness":{
				"baseColorFactor":[
					0.800000011920929,
					0.800000011920929,
					0.800000011920929,
					1
				],
				"roughnessFactor":0.5
			}
		},
		{
			"doubleSided":true,
			"name":"turpentineInside",
			"pbrMetallicRoughness":{
				"baseColorFactor":[
					0,
					0,
					0,
					1
				],
				"metallicFactor":0,
				"roughnessFactor":0.5
			}
		}
	],
	"meshes":[
		{
			"name":"Cube.015",
			"primitives":[
				{
					"attributes":{
						"POSITION":0,
						"NORMAL":1,
						"TEXCOORD_0":2
					},
					"indices":3,
					"material":0
				},
				{
					"attributes":{
						"POSITION":4,
						"NORMAL":5,
						"TEXCOORD_0":6
					},
					"indices":7,
					"material":1
				}
			]
		}
	],
	"accessors":[
		{
			"bufferView":0,
			"componentType":5126,
			"count":504,
			"max":[
				4.571042537689209,
				7.779709815979004,
				3.043313980102539
			],
			"min":[
				-4.650731086730957,
				-6.7625017166137695,
				-3.024808883666992
			],
			"type":"VEC3"
		},
		{
			"bufferView":1,
			"componentType":5126,
			"count":504,
			"type":"VEC3"
		},
		{
			"bufferView":2,
			"componentType":5126,
			"count":504,
			"type":"VEC2"
		},
		{
			"bufferView":3,
			"componentType":5123,
			"count":1734,
			"type":"SCALAR"
		},
		{
			"bufferView":4,
			"componentType":5126,
			"count":16,
			"max":[
				3.5432534217834473,
				6.843100070953369,
				-0.4062718152999878
			],
			"min":[
				1.8452633619308472,
				6.843100070953369,
				-2.104261875152588
			],
			"type":"VEC3"
		},
		{
			"bufferView":5,
			"componentType":5126,
			"count":16,
			"type":"VEC3"
		},
		{
			"bufferView":6,
			"componentType":5126,
			"count":16,
			"type":"VEC2"
		},
		{
			"bufferView":7,
			"componentType":5123,
			"count":42,
			"type":"SCALAR"
		}
	],
	"bufferViews":[
		{
			"buffer":0,
			"byteLength":6048,
			"byteOffset":0,
			"target":34962
		},
		{
			"buffer":0,
			"byteLength":6048,
			"byteOffset":6048,
			"target":34962
		},
		{
			"buffer":0,
			"byteLength":4032,
			"byteOffset":12096,
			"target":34962
		},
		{
			"buffer":0,
			"byteLength":3468,
			"byteOffset":16128,
			"target":34963
		},
		{
			"buffer":0,
			"byteLength":192,
			"byteOffset":19596,
			"target":34962
		},
		{
			"buffer":0,
			"byteLength":192,
			"byteOffset":19788,
			"target":34962
		},
		{
			"buffer":0,
			"byteLength":128,
			"byteOffset":19980,
			"target":34962
		},
		{
			"buffer":0,
			"byteLength":84,
			"byteOffset":20108,
			"target":34963
		}
	],
	"buffers":[
		{
			"byteLength":20192,
			"uri":"data:application/octet-stream;base64,"
		}
	]
}
