{
	"asset":{
		"generator":"Khronos glTF Blender I/O v4.1.63",
		"version":"2.0"
	},
	"scene":0,
	"scenes":[
		{
			"name":"Scene",
			"nodes":[
				0,
				1,
				2,
				3,
				4,
				5
			]
		}
	],
	"nodes":[
		{
			"mesh":0,
			"name":"Cube.018",
			"translation":[
				15.331767082214355,
				52.49518585205078,
				-9.058649063110352
			]
		},
		{
			"mesh":1,
			"name":"Circle.016",
			"translation":[
				15.331767082214355,
				69.37234497070312,
				-9.058649063110352
			]
		},
		{
			"mesh":2,
			"name":"Cube.020",
			"translation":[
				-5.362090110778809,
				17.443635940551758,
				42.33679962158203
			]
		},
		{
			"mesh":3,
			"name":"Circle.017",
			"rotation":[
				0.7071068286895752,
				0,
				0,
				0.7071068286895752
			],
			"translation":[
				6.533058166503906,
				30.95353126525879,
				41.38964080810547
			]
		},
		{
			"mesh":4,
			"name":"Plane.002",
			"scale":[
				22.3668270111084,
				22.3668270111084,
				22.3668270111084
			],
			"translation":[
				3.397655725479126,
				1.5701730251312256,
				-1.3298389911651611
			]
		},
		{
			"mesh":5,
			"name":"Cube.021",
			"scale":[
				1.8565595149993896,
				1.4435664415359497,
				1.8565595149993896
			],
			"translation":[
				-34.492000579833984,
				1.8518919944763184,
				43.235233306884766
			]
		}
	],
	"materials":[
		{
			"doubleSided":true,
			"name":"roomwalls",
			"pbrMetallicRoughness":{
				"baseColorFactor":[
					0.7694802284240723,
					0.800039529800415,
					0.4664852023124695,
					1
				],
				"metallicFactor":0,
				"roughnessFactor":0.5
			}
		},
		{
			"doubleSided":true,
			"name":"windowFrame",
			"pbrMetallicRoughness":{
				"baseColorFactor":[
					0.800000011920929,
					0.800000011920929,
					0.800000011920929,
					1
				],
				"metallicFactor":0,
				"roughnessFactor":0.5
			}
		},
		{
			"doubleSided":true,
			"name":"shelfHolder",
			"pbrMetallicRoughness":{
				"baseColorFactor":[
					0.37711602449417114,
					0.37711602449417114,
					0.37711602449417114,
					1
				],
				"roughnessFactor":0.5
			}
		},
		{
			"doubleSided":true,
			"name":"shelf",
			"pbrMetallicRoughness":{
				"baseColorFactor":[
					0.407038152217865,
					0.12513332068920135,
					0.059465207159519196,
					1
				],
				"metallicFactor":0,
				"roughnessFactor":0.5
			}
		},
		{
			"doubleSided":true,
			"name":"ceiliangfan",
			"pbrMetallicRoughness":{
				"baseColorFactor":[
					0.800000011920929,
					0.800000011920929,
					0.800000011920929,
					1
				],
				"metallicFactor":0,
				"roughnessFactor":0.5
			}
		},
		{
			"doubleSided":true,
			"emissiveFactor":[
				0.9067796468734741,
				1,
				0.3221672773361206
			],
			"name":"ceilingLight",
			"pbrMetallicRoughness":{
				"baseColorFactor":[
					0.7586333751678467,
					0.8001194596290588,
					0.2508018910884857,
					1
				],
				"metallicFactor":0,
				"roughnessFactor":0.5
			}
		},
		{
			"doubleSided":true,
			"name":"door",
			"pbrMetallicRoughness":{
				"baseColorFactor":[
					0.8000785112380981,
					0.5674523115158081,
					0.30595633387565613,
					1
				],
				"metallicFactor":0,
				"roughnessFactor":0.5
			}
		},
		{
			"doubleSided":true,
			"name":"wood",
			"pbrMetallicRoughness":{
				"baseColorFactor":[
					0.5961487889289856,
					0.3963223099708557,
					0.14001116156578064,
					1
				],
				"metallicFactor":0,
				"roughnessFactor":0.5
			}
		}
	],
	"meshes":[
		{
			"name":"Cube.019",
			"primitives":[
				{
					"attributes":{
						"POSITION":0,
						"NORMAL":1,
						"TEXCOORD_0":2
					},
					"indices":3,
					"material":0
				},
				{
					"attributes":{
						"POSITION":4,
						"NORMAL":5,
						"TEXCOORD_0":6
					},
					"indices":7,
					"material":1
				},
				{
					"attributes":{
						"POSITION":8,
						"NORMAL":9,
						"TEXCOORD_0":10
					},
					"indices":11,
					"material":2
				},
				{
					"attributes":{
						"POSITION":12,
						"NORMAL":13,
						"TEXCOORD_0":14
					},
					"indices":15,
					"material":3
				}
			]
		},
		{
			"name":"Circle.017",
			"primitives":[
				{
					"attributes":{
						"POSITION":16,
						"NORMAL":17,
						"TEXCOORD_0":18
					},
					"indices":19,
					"material":4
				},
				{
					"attributes":{
						"POSITION":20,
						"NORMAL":21,
						"TEXCOORD_0":22
					},
					"indices":23,
					"material":5
				}
			]
		},
		{
			"name":"Cube.022",
			"primitives":[
				{
					"attributes":{
						"POSITION":24,
						"NORMAL":25,
						"TEXCOORD_0":26
					},
					"indices":27,
					"material":6
				}
			]
		},
		{
			"name":"Circle.018",
			"primitives":[
				{
					"attributes":{
						"POSITION":28,
						"NORMAL":29,
						"TEXCOORD_0":30
					},
					"indices":31
				}
			]
		},
		{
			"name":"Plane.007",
			"primitives":[
				{
					"attributes":{
						"POSITION":32,
						"NORMAL":33,
						"TEXCOORD_0":34
					},
					"indices":35
				}
			]
		},
		{
			"name":"Cube.024",
			"primitives":[
				{
					"attributes":{
						"POSITION":36,
						"NORMAL":37,
						"TEXCOORD_0":38
					},
					"indices":39,
					"material":7
				}
			]
		}
	],
	"accessors":[
		{
			"bufferView":0,
			"componentType":5126,
			"count":173,
			"max":[
				51.257022857666016,
				26.368005752563477,
				51.25702667236328
			],
			"min":[
				-51.25709915161133,
				-51.25691604614258,
				-51.25709533691406
			],
			"type":"VEC3"
		},
		{
			"bufferView":1,
			"componentType":5126,
			"count":173,
			"type":"VEC3"
		},
		{
			"bufferView":2,
			"componentType":5126,
			"count":173,
			"type":"VEC2"
		},
		{
			"bufferView":3,
			"componentType":5123,
			"count":732,
			"type":"SCALAR"
		},
		{
			"bufferView":4,
			"componentType":5126,
			"count":1332,
			"max":[
				32.89540481567383,
				10.513021469116211,
				-47.011878967285156
			],
			"min":[
				-31.340438842773438,
				-25.351816177368164,
				-52.178951263427734
			],
			"type":"VEC3"
		},
		{
			"bufferView":5,
			"componentType":5126,
			"count":1332,
			"type":"VEC3"
		},
		{
			"bufferView":6,
			"componentType":5126,
			"count":1332,
			"type":"VEC2"
		},
		{
			"bufferView":7,
			"componentType":5123,
			"count":3696,
			"type":"SCALAR"
		},
		{
			"bufferView":8,
			"componentType":5126,
			"count":928,
			"max":[
				-41.26306915283203,
				3.066798686981201,
				38.84486389160156
			],
			"min":[
				-51.2311897277832,
				-21.627540588378906,
				-36.422672271728516
			],
			"type":"VEC3"
		},
		{
			"bufferView":9,
			"componentType":5126,
			"count":928,
			"type":"VEC3"
		},
		{
			"bufferView":10,
			"componentType":5126,
			"count":928,
			"type":"VEC2"
		},
		{
			"bufferView":11,
			"componentType":5123,
			"count":2016,
			"type":"SCALAR"
		},
		{
			"bufferView":12,
			"componentType":5126,
			"count":168,
			"max":[
				-42.03168487548828,
				3.5323634147644043,
				41.63505172729492
			],
			"min":[
				-50.439781188964844,
				-13.604060173034668,
				-38.94889831542969
			],
			"type":"VEC3"
		},
		{
			"bufferView":13,
			"componentType":5126,
			"count":168,
			"type":"VEC3"
		},
		{
			"bufferView":14,
			"componentType":5126,
			"count":168,
			"type":"VEC2"
		},
		{
			"bufferView":15,
			"componentType":5123,
			"count":492,
			"type":"SCALAR"
		},
		{
			"bufferView":16,
			"componentType":5126,
			"count":976,
			"max":[
				27.64270782470703,
				18.469161987304688,
				27.816184997558594
			],
			"min":[
				-27.481765747070312,
				-1.2582194805145264,
				-27.537261962890625
			],
			"type":"VEC3"
		},
		{
			"bufferView":17,
			"componentType":5126,
			"count":976,
			"type":"VEC3"
		},
		{
			"bufferView":18,
			"componentType":5126,
			"count":976,
			"type":"VEC2"
		},
		{
			"bufferView":19,
			"componentType":5123,
			"count":3024,
			"type":"SCALAR"
		},
		{
			"bufferView":20,
			"componentType":5126,
			"count":128,
			"max":[
				3.445385456085205,
				-1.2582194805145264,
				3.4527127742767334
			],
			"min":[
				-3.425358295440674,
				-2.240419387817383,
				-3.418032646179199
			],
			"type":"VEC3"
		},
		{
			"bufferView":21,
			"componentType":5126,
			"count":128,
			"type":"VEC3"
		},
		{
			"bufferView":22,
			"componentType":5126,
			"count":128,
			"type":"VEC2"
		},
		{
			"bufferView":23,
			"componentType":5123,
			"count":666,
			"type":"SCALAR"
		},
		{
			"bufferView":24,
			"componentType":5126,
			"count":241,
			"max":[
				15.647212982177734,
				35.008365631103516,
				1
			],
			"min":[
				-12.653971672058105,
				-16.07329750061035,
				-1
			],
			"type":"VEC3"
		},
		{
			"bufferView":25,
			"componentType":5126,
			"count":241,
			"type":"VEC3"
		},
		{
			"bufferView":26,
			"componentType":5126,
			"count":241,
			"type":"VEC2"
		},
		{
			"bufferView":27,
			"componentType":5123,
			"count":528,
			"type":"SCALAR"
		},
		{
			"bufferView":28,
			"componentType":5126,
			"count":220,
			"max":[
				1.1549806594848633,
				-5.912047527090181e-07,
				1.154981017112732
			],
			"min":[
				-3.609473466873169,
				-1.6624510288238525,
				-1.1946688890457153
			],
			"type":"VEC3"
		},
		{
			"bufferView":29,
			"componentType":5126,
			"count":220,
			"type":"VEC3"
		},
		{
			"bufferView":30,
			"componentType":5126,
			"count":220,
			"type":"VEC2"
		},
		{
			"bufferView":31,
			"componentType":5123,
			"count":786,
			"type":"SCALAR"
		},
		{
			"bufferView":32,
			"componentType":5126,
			"count":4,
			"max":[
				2.963695764541626,
				-1.463067356155534e-08,
				2.963695764541626
			],
			"min":[
				-2.963695764541626,
				-1.463067356155534e-08,
				-2.963695526123047
			],
			"type":"VEC3"
		},
		{
			"bufferView":33,
			"componentType":5126,
			"count":4,
			"type":"VEC3"
		},
		{
			"bufferView":34,
			"componentType":5126,
			"count":4,
			"type":"VEC2"
		},
		{
			"bufferView":35,
			"componentType":5123,
			"count":6,
			"type":"SCALAR"
		},
		{
			"bufferView":36,
			"componentType":5126,
			"count":11448,
			"max":[
				66.84532165527344,
				0.28428804874420166,
				1.0187900066375732
			],
			"min":[
				-9.456506729125977,
				-0.2843409478664398,
				-59.03203582763672
			],
			"type":"VEC3"
		},
		{
			"bufferView":37,
			"componentType":5126,
			"count":11448,
			"type":"VEC3"
		},
		{
			"bufferView":38,
			"componentType":5126,
			"count":11448,
			"type":"VEC2"
		},
		{
			"bufferView":39,
			"componentType":5123,
			"count":28080,
			"type":"SCALAR"
		}
	],
	"bufferViews":[
		{
			"buffer":0,
			"byteLength":2076,
			"byteOffset":0,
			"target":34962
		},
		{
			"buffer":0,
			"byteLength":2076,
			"byteOffset":2076,
			"target":34962
		},
		{
			"buffer":0,
			"byteLength":1384,
			"byteOffset":4152,
			"target":34962
		},
		{
			"buffer":0,
			"byteLength":1464,
			"byteOffset":5536,
			"target":34963
		},
		{
			"buffer":0,
			"byteLength":15984,
			"byteOffset":7000,
			"target":34962
		},
		{
			"buffer":0,
			"byteLength":15984,
			"byteOffset":22984,
			"target":34962
		},
		{
			"buffer":0,
			"byteLength":10656,
			"byteOffset":38968,
			"target":34962
		},
		{
			"buffer":0,
			"byteLength":7392,
			"byteOffset":49624,
			"target":34963
		},
		{
			"buffer":0,
			"byteLength":11136,
			"byteOffset":57016,
			"target":34962
		},
		{
			"buffer":0,
			"byteLength":11136,
			"byteOffset":68152,
			"target":34962
		},
		{
			"buffer":0,
			"byteLength":7424,
			"byteOffset":79288,
			"target":34962
		},
		{
			"buffer":0,
			"byteLength":4032,
			"byteOffset":86712,
			"target":34963
		},
		{
			"buffer":0,
			"byteLength":2016,
			"byteOffset":90744,
			"target":34962
		},
		{
			"buffer":0,
			"byteLength":2016,
			"byteOffset":92760,
			"target":34962
		},
		{
			"buffer":0,
			"byteLength":1344,
			"byteOffset":94776,
			"target":34962
		},
		{
			"buffer":0,
			"byteLength":984,
			"byteOffset":96120,
			"target":34963
		},
		{
			"buffer":0,
			"byteLength":11712,
			"byteOffset":97104,
			"target":34962
		},
		{
			"buffer":0,
			"byteLength":11712,
			"byteOffset":108816,
			"target":34962
		},
		{
			"buffer":0,
			"byteLength":7808,
			"byteOffset":120528,
			"target":34962
		},
		{
			"buffer":0,
			"byteLength":6048,
			"byteOffset":128336,
			"target":34963
		},
		{
			"buffer":0,
			"byteLength":1536,
			"byteOffset":134384,
			"target":34962
		},
		{
			"buffer":0,
			"byteLength":1536,
			"byteOffset":135920,
			"target":34962
		},
		{
			"buffer":0,
			"byteLength":1024,
			"byteOffset":137456,
			"target":34962
		},
		{
			"buffer":0,
			"byteLength":1332,
			"byteOffset":138480,
			"target":34963
		},
		{
			"buffer":0,
			"byteLength":2892,
			"byteOffset":139812,
			"target":34962
		},
		{
			"buffer":0,
			"byteLength":2892,
			"byteOffset":142704,
			"target":34962
		},
		{
			"buffer":0,
			"byteLength":1928,
			"byteOffset":145596,
			"target":34962
		},
		{
			"buffer":0,
			"byteLength":1056,
			"byteOffset":147524,
			"target":34963
		},
		{
			"buffer":0,
			"byteLength":2640,
			"byteOffset":148580,
			"target":34962
		},
		{
			"buffer":0,
			"byteLength":2640,
			"byteOffset":151220,
			"target":34962
		},
		{
			"buffer":0,
			"byteLength":1760,
			"byteOffset":153860,
			"target":34962
		},
		{
			"buffer":0,
			"byteLength":1572,
			"byteOffset":155620,
			"target":34963
		},
		{
			"buffer":0,
			"byteLength":48,
			"byteOffset":157192,
			"target":34962
		},
		{
			"buffer":0,
			"byteLength":48,
			"byteOffset":157240,
			"target":34962
		},
		{
			"buffer":0,
			"byteLength":32,
			"byteOffset":157288,
			"target":34962
		},
		{
			"buffer":0,
			"byteLength":12,
			"byteOffset":157320,
			"target":34963
		},
		{
			"buffer":0,
			"byteLength":137376,
			"byteOffset":157332,
			"target":34962
		},
		{
			"buffer":0,
			"byteLength":137376,
			"byteOffset":294708,
			"target":34962
		},
		{
			"buffer":0,
			"byteLength":91584,
			"byteOffset":432084,
			"target":34962
		},
		{
			"buffer":0,
			"byteLength":56160,
			"byteOffset":523668,
			"target":34963
		}
	],
	"buffers":[
		{
			"byteLength":579828,
			"uri":"data:application/octet-stream;base64,"
		}
	]
}
