{
	"asset":{
		"generator":"Khronos glTF Blender I/O v4.1.63",
		"version":"2.0"
	},
	"extensionsUsed":[
		"KHR_materials_unlit"
	],
	"scene":0,
	"scenes":[
		{
			"name":"Scene",
			"nodes":[
				0,
				1,
				2
			]
		}
	],
	"nodes":[
		{
			"mesh":0,
			"name":"Circle.001",
			"translation":[
				-1.3524925708770752,
				9.348601341247559,
				20.928176879882812
			]
		},
		{
			"mesh":1,
			"name":"Cube.002",
			"translation":[
				-1.3524925708770752,
				6.1314520835876465,
				20.928176879882812
			]
		},
		{
			"mesh":2,
			"name":"Cube.004",
			"translation":[
				-1.3524925708770752,
				6.1314520835876465,
				20.928176879882812
			]
		}
	],
	"materials":[
		{
			"doubleSided":true,
			"name":"cork",
			"pbrMetallicRoughness":{
				"baseColorFactor":[
					0.8002194166183472,
					0.35721975564956665,
					0.0728943794965744,
					1
				],
				"metallicFactor":0,
				"roughnessFactor":0.5
			}
		},
		{
			"alphaMode":"BLEND",
			"doubleSided":true,
			"extensions":{
				"KHR_materials_unlit":{}
			},
			"name":"glass",
			"pbrMetallicRoughness":{
				"metallicFactor":0,
				"roughnessFactor":0.9
			}
		}
	],
	"meshes":[
		{
			"name":"Circle.002",
			"primitives":[
				{
					"attributes":{
						"POSITION":0,
						"NORMAL":1,
						"TEXCOORD_0":2
					},
					"indices":3,
					"material":0
				}
			]
		},
		{
			"name":"Cube.001",
			"primitives":[
				{
					"attributes":{
						"POSITION":4,
						"NORMAL":5,
						"TEXCOORD_0":6
					},
					"indices":7,
					"material":1
				}
			]
		},
		{
			"name":"Cube.004",
			"primitives":[
				{
					"attributes":{
						"POSITION":8,
						"NORMAL":9,
						"TEXCOORD_0":10
					},
					"indices":11,
					"material":1
				}
			]
		}
	],
	"accessors":[
		{
			"bufferView":0,
			"componentType":5126,
			"count":213,
			"max":[
				0.564195454120636,
				0.031195595860481262,
				0.5641958713531494
			],
			"min":[
				-0.5641956329345703,
				-0.793106198310852,
				-0.5641952157020569
			],
			"type":"VEC3"
		},
		{
			"bufferView":1,
			"componentType":5126,
			"count":213,
			"type":"VEC3"
		},
		{
			"bufferView":2,
			"componentType":5126,
			"count":213,
			"type":"VEC2"
		},
		{
			"bufferView":3,
			"componentType":5123,
			"count":852,
			"type":"SCALAR"
		},
		{
			"bufferView":4,
			"componentType":5126,
			"count":2493,
			"max":[
				1.08507239818573,
				2.1917929649353027,
				1.0850704908370972
			],
			"min":[
				-1.0850725173950195,
				-0.9450939893722534,
				-1.085074543952942
			],
			"type":"VEC3"
		},
		{
			"bufferView":5,
			"componentType":5126,
			"count":2493,
			"type":"VEC3"
		},
		{
			"bufferView":6,
			"componentType":5126,
			"count":2493,
			"type":"VEC2"
		},
		{
			"bufferView":7,
			"componentType":5123,
			"count":13248,
			"type":"SCALAR"
		},
		{
			"bufferView":8,
			"componentType":5126,
			"count":1022,
			"max":[
				1.1492488384246826,
				2.8478150367736816,
				1.1492488384246826
			],
			"min":[
				-1.1492488384246826,
				-1,
				-1.1492489576339722
			],
			"type":"VEC3"
		},
		{
			"bufferView":9,
			"componentType":5126,
			"count":1022,
			"type":"VEC3"
		},
		{
			"bufferView":10,
			"componentType":5126,
			"count":1022,
			"type":"VEC2"
		},
		{
			"bufferView":11,
			"componentType":5123,
			"count":3840,
			"type":"SCALAR"
		}
	],
	"bufferViews":[
		{
			"buffer":0,
			"byteLength":2556,
			"byteOffset":0,
			"target":34962
		},
		{
			"buffer":0,
			"byteLength":2556,
			"byteOffset":2556,
			"target":34962
		},
		{
			"buffer":0,
			"byteLength":1704,
			"byteOffset":5112,
			"target":34962
		},
		{
			"buffer":0,
			"byteLength":1704,
			"byteOffset":6816,
			"target":34963
		},
		{
			"buffer":0,
			"byteLength":29916,
			"byteOffset":8520,
			"target":34962
		},
		{
			"buffer":0,
			"byteLength":29916,
			"byteOffset":38436,
			"target":34962
		},
		{
			"buffer":0,
			"byteLength":19944,
			"byteOffset":68352,
			"target":34962
		},
		{
			"buffer":0,
			"byteLength":26496,
			"byteOffset":88296,
			"target":34963
		},
		{
			"buffer":0,
			"byteLength":12264,
			"byteOffset":114792,
			"target":34962
		},
		{
			"buffer":0,
			"byteLength":12264,
			"byteOffset":127056,
			"target":34962
		},
		{
			"buffer":0,
			"byteLength":8176,
			"byteOffset":139320,
			"target":34962
		},
		{
			"buffer":0,
			"byteLength":7680,
			"byteOffset":147496,
			"target":34963
		}
	],
	"buffers":[
		{
			"byteLength":155176,
			"uri":"data:application/octet-stream;base64,"
		}
	]
}
