{
	"asset":{
		"generator":"Khronos glTF Blender I/O v4.1.63",
		"version":"2.0"
	},
	"extensionsUsed":[
		"KHR_materials_unlit"
	],
	"scene":0,
	"scenes":[
		{
			"name":"Scene",
			"nodes":[
				0,
				1,
				2
			]
		}
	],
	"nodes":[
		{
			"mesh":0,
			"name":"Cube",
			"translation":[
				-1.3524925708770752,
				0.9371495246887207,
				9.788161277770996
			]
		},
		{
			"mesh":1,
			"name":"Circle",
			"translation":[
				-1.3524925708770752,
				4.154298782348633,
				9.788161277770996
			]
		},
		{
			"mesh":2,
			"name":"Cube.001",
			"translation":[
				-1.3524925708770752,
				0.9371495246887207,
				9.788161277770996
			]
		}
	],
	"materials":[
		{
			"alphaMode":"BLEND",
			"doubleSided":true,
			"extensions":{
				"KHR_materials_unlit":{}
			},
			"name":"glass",
			"pbrMetallicRoughness":{
				"metallicFactor":0,
				"roughnessFactor":0.9
			}
		},
		{
			"doubleSided":true,
			"name":"cork",
			"pbrMetallicRoughness":{
				"baseColorFactor":[
					0.8002194166183472,
					0.35721975564956665,
					0.0728943794965744,
					1
				],
				"metallicFactor":0,
				"roughnessFactor":0.5
			}
		},
		{
			"doubleSided":true,
			"name":"ink",
			"pbrMetallicRoughness":{
				"baseColorFactor":[
					0.010502980090677738,
					0.010502980090677738,
					0.010502980090677738,
					1
				],
				"metallicFactor":0,
				"roughnessFactor":0.5
			}
		}
	],
	"meshes":[
		{
			"name":"Cube.002",
			"primitives":[
				{
					"attributes":{
						"POSITION":0,
						"NORMAL":1,
						"TEXCOORD_0":2
					},
					"indices":3,
					"material":0
				}
			]
		},
		{
			"name":"Circle",
			"primitives":[
				{
					"attributes":{
						"POSITION":4,
						"NORMAL":5,
						"TEXCOORD_0":6
					},
					"indices":7,
					"material":1
				}
			]
		},
		{
			"name":"Cube.006",
			"primitives":[
				{
					"attributes":{
						"POSITION":8,
						"NORMAL":9,
						"TEXCOORD_0":10
					},
					"indices":11,
					"material":2
				}
			]
		}
	],
	"accessors":[
		{
			"bufferView":0,
			"componentType":5126,
			"count":1022,
			"max":[
				1.1492488384246826,
				2.8478150367736816,
				1.1492488384246826
			],
			"min":[
				-1.1492488384246826,
				-1,
				-1.1492489576339722
			],
			"type":"VEC3"
		},
		{
			"bufferView":1,
			"componentType":5126,
			"count":1022,
			"type":"VEC3"
		},
		{
			"bufferView":2,
			"componentType":5126,
			"count":1022,
			"type":"VEC2"
		},
		{
			"bufferView":3,
			"componentType":5123,
			"count":3840,
			"type":"SCALAR"
		},
		{
			"bufferView":4,
			"componentType":5126,
			"count":213,
			"max":[
				0.564195454120636,
				0.031195595860481262,
				0.5641958713531494
			],
			"min":[
				-0.5641956329345703,
				-0.793106198310852,
				-0.5641952157020569
			],
			"type":"VEC3"
		},
		{
			"bufferView":5,
			"componentType":5126,
			"count":213,
			"type":"VEC3"
		},
		{
			"bufferView":6,
			"componentType":5126,
			"count":213,
			"type":"VEC2"
		},
		{
			"bufferView":7,
			"componentType":5123,
			"count":852,
			"type":"SCALAR"
		},
		{
			"bufferView":8,
			"componentType":5126,
			"count":205,
			"max":[
				1.0425636768341064,
				1.2593839168548584,
				1.0425630807876587
			],
			"min":[
				-1.0425636768341064,
				-0.9219456911087036,
				-1.0425642728805542
			],
			"type":"VEC3"
		},
		{
			"bufferView":9,
			"componentType":5126,
			"count":205,
			"type":"VEC3"
		},
		{
			"bufferView":10,
			"componentType":5126,
			"count":205,
			"type":"VEC2"
		},
		{
			"bufferView":11,
			"componentType":5123,
			"count":786,
			"type":"SCALAR"
		}
	],
	"bufferViews":[
		{
			"buffer":0,
			"byteLength":12264,
			"byteOffset":0,
			"target":34962
		},
		{
			"buffer":0,
			"byteLength":12264,
			"byteOffset":12264,
			"target":34962
		},
		{
			"buffer":0,
			"byteLength":8176,
			"byteOffset":24528,
			"target":34962
		},
		{
			"buffer":0,
			"byteLength":7680,
			"byteOffset":32704,
			"target":34963
		},
		{
			"buffer":0,
			"byteLength":2556,
			"byteOffset":40384,
			"target":34962
		},
		{
			"buffer":0,
			"byteLength":2556,
			"byteOffset":42940,
			"target":34962
		},
		{
			"buffer":0,
			"byteLength":1704,
			"byteOffset":45496,
			"target":34962
		},
		{
			"buffer":0,
			"byteLength":1704,
			"byteOffset":47200,
			"target":34963
		},
		{
			"buffer":0,
			"byteLength":2460,
			"byteOffset":48904,
			"target":34962
		},
		{
			"buffer":0,
			"byteLength":2460,
			"byteOffset":51364,
			"target":34962
		},
		{
			"buffer":0,
			"byteLength":1640,
			"byteOffset":53824,
			"target":34962
		},
		{
			"buffer":0,
			"byteLength":1572,
			"byteOffset":55464,
			"target":34963
		}
	],
	"buffers":[
		{
			"byteLength":57036,
			"uri":"data:application/octet-stream;base64,"
		}
	]
}
