{
	"asset":{
		"generator":"Khronos glTF Blender I/O v4.1.63",
		"version":"2.0"
	},
	"scene":0,
	"scenes":[
		{
			"name":"Scene",
			"nodes":[
				0
			]
		}
	],
	"nodes":[
		{
			"mesh":0,
			"name":"16by9 template.001",
			"rotation":[
				0,
				0,
				-0.7071066498756409,
				0.7071069478988647
			],
			"scale":[
				1.7770709991455078,
				0.11106693744659424,
				0.9996025562286377
			],
			"translation":[
				-1.1984267234802246,
				0.7440547943115234,
				10.658130645751953
			]
		}
	],
	"materials":[
		{
			"doubleSided":true,
			"name":"wood",
			"pbrMetallicRoughness":{
				"baseColorFactor":[
					0.5961487889289856,
					0.3963223099708557,
					0.14001116156578064,
					1
				],
				"metallicFactor":0,
				"roughnessFactor":0.5
			}
		},
		{
			"doubleSided":true,
			"name":"canvasback",
			"pbrMetallicRoughness":{
				"baseColorFactor":[
					0.4400317668914795,
					0.5673596262931824,
					0.5961490273475647,
					1
				],
				"metallicFactor":0,
				"roughnessFactor":0.5
			}
		},
		{
			"doubleSided":true,
			"name":"painting",
			"pbrMetallicRoughness":{
				"baseColorFactor":[
					0.800000011920929,
					0.800000011920929,
					0.800000011920929,
					1
				],
				"metallicFactor":0,
				"roughnessFactor":0.5
			}
		},
		{
			"doubleSided":true,
			"name":"staple",
			"pbrMetallicRoughness":{
				"baseColorFactor":[
					0.2951948642730713,
					0.2951948642730713,
					0.2951948642730713,
					1
				],
				"roughnessFactor":0.5
			}
		}
	],
	"meshes":[
		{
			"name":"Plane.004",
			"primitives":[
				{
					"attributes":{
						"POSITION":0,
						"NORMAL":1,
						"TEXCOORD_0":2
					},
					"indices":3,
					"material":0
				},
				{
					"attributes":{
						"POSITION":4,
						"NORMAL":5,
						"TEXCOORD_0":6
					},
					"indices":7,
					"material":1
				},
				{
					"attributes":{
						"POSITION":8,
						"NORMAL":9,
						"TEXCOORD_0":10
					},
					"indices":11,
					"material":2
				},
				{
					"attributes":{
						"POSITION":12,
						"NORMAL":13,
						"TEXCOORD_0":14
					},
					"indices":15,
					"material":3
				}
			]
		}
	],
	"accessors":[
		{
			"bufferView":0,
			"componentType":5126,
			"count":24,
			"max":[
				0.9938268661499023,
				-0.5302228927612305,
				0.988052487373352
			],
			"min":[
				-0.9938268661499023,
				-1.3508838415145874,
				-0.988052487373352
			],
			"type":"VEC3"
		},
		{
			"bufferView":1,
			"componentType":5126,
			"count":24,
			"type":"VEC3"
		},
		{
			"bufferView":2,
			"componentType":5126,
			"count":24,
			"type":"VEC2"
		},
		{
			"bufferView":3,
			"componentType":5123,
			"count":48,
			"type":"SCALAR"
		},
		{
			"bufferView":4,
			"componentType":5126,
			"count":644,
			"max":[
				1,
				-0.05892062187194824,
				1
			],
			"min":[
				-1,
				-1.387237787246704,
				-1
			],
			"type":"VEC3"
		},
		{
			"bufferView":5,
			"componentType":5126,
			"count":644,
			"type":"VEC3"
		},
		{
			"bufferView":6,
			"componentType":5126,
			"count":644,
			"type":"VEC2"
		},
		{
			"bufferView":7,
			"componentType":5123,
			"count":1554,
			"type":"SCALAR"
		},
		{
			"bufferView":8,
			"componentType":5126,
			"count":144,
			"max":[
				1,
				2.0954757928848267e-09,
				1
			],
			"min":[
				-1,
				-0.05892062187194824,
				-1
			],
			"type":"VEC3"
		},
		{
			"bufferView":9,
			"componentType":5126,
			"count":144,
			"type":"VEC3"
		},
		{
			"bufferView":10,
			"componentType":5126,
			"count":144,
			"type":"VEC2"
		},
		{
			"bufferView":11,
			"componentType":5123,
			"count":234,
			"type":"SCALAR"
		},
		{
			"bufferView":12,
			"componentType":5126,
			"count":792,
			"max":[
				0.9946081042289734,
				-1.3526909351348877,
				0.989007294178009
			],
			"min":[
				-0.9941924810409546,
				-1.4216045141220093,
				-0.9880819916725159
			],
			"type":"VEC3"
		},
		{
			"bufferView":13,
			"componentType":5126,
			"count":792,
			"type":"VEC3"
		},
		{
			"bufferView":14,
			"componentType":5126,
			"count":792,
			"type":"VEC2"
		},
		{
			"bufferView":15,
			"componentType":5123,
			"count":1188,
			"type":"SCALAR"
		}
	],
	"bufferViews":[
		{
			"buffer":0,
			"byteLength":288,
			"byteOffset":0,
			"target":34962
		},
		{
			"buffer":0,
			"byteLength":288,
			"byteOffset":288,
			"target":34962
		},
		{
			"buffer":0,
			"byteLength":192,
			"byteOffset":576,
			"target":34962
		},
		{
			"buffer":0,
			"byteLength":96,
			"byteOffset":768,
			"target":34963
		},
		{
			"buffer":0,
			"byteLength":7728,
			"byteOffset":864,
			"target":34962
		},
		{
			"buffer":0,
			"byteLength":7728,
			"byteOffset":8592,
			"target":34962
		},
		{
			"buffer":0,
			"byteLength":5152,
			"byteOffset":16320,
			"target":34962
		},
		{
			"buffer":0,
			"byteLength":3108,
			"byteOffset":21472,
			"target":34963
		},
		{
			"buffer":0,
			"byteLength":1728,
			"byteOffset":24580,
			"target":34962
		},
		{
			"buffer":0,
			"byteLength":1728,
			"byteOffset":26308,
			"target":34962
		},
		{
			"buffer":0,
			"byteLength":1152,
			"byteOffset":28036,
			"target":34962
		},
		{
			"buffer":0,
			"byteLength":468,
			"byteOffset":29188,
			"target":34963
		},
		{
			"buffer":0,
			"byteLength":9504,
			"byteOffset":29656,
			"target":34962
		},
		{
			"buffer":0,
			"byteLength":9504,
			"byteOffset":39160,
			"target":34962
		},
		{
			"buffer":0,
			"byteLength":6336,
			"byteOffset":48664,
			"target":34962
		},
		{
			"buffer":0,
			"byteLength":2376,
			"byteOffset":55000,
			"target":34963
		}
	],
	"buffers":[
		{
			"byteLength":57376,
			"uri":"data:application/octet-stream;base64,"
		}
	]
}
