{
	"asset":{
		"generator":"Khronos glTF Blender I/O v4.1.63",
		"version":"2.0"
	},
	"scene":0,
	"scenes":[
		{
			"name":"Scene",
			"nodes":[
				0,
				1,
				2,
				3,
				4,
				5,
				6
			]
		}
	],
	"nodes":[
		{
			"mesh":0,
			"name":"Circle.002",
			"translation":[
				-1,
				2,
				10
			]
		},
		{
			"mesh":1,
			"name":"Circle.003",
			"translation":[
				-1,
				2,
				10
			]
		},
		{
			"mesh":2,
			"name":"Circle.004",
			"rotation":[
				0,
				-0.8660253882408142,
				0,
				0.4999999701976776
			],
			"translation":[
				-1,
				2,
				10
			]
		},
		{
			"mesh":3,
			"name":"Circle.005",
			"rotation":[
				0,
				0.8660253882408142,
				0,
				0.5
			],
			"translation":[
				-1,
				2,
				10
			]
		},
		{
			"mesh":4,
			"name":"Circle.006",
			"rotation":[
				0.3535534143447876,
				0.6123724579811096,
				-0.6123725175857544,
				0.3535534143447876
			],
			"translation":[
				-1,
				2,
				10
			]
		},
		{
			"mesh":5,
			"name":"Circle.007",
			"rotation":[
				0.3535534739494324,
				-0.6123724579811096,
				0.6123724579811096,
				0.35355344414711
			],
			"translation":[
				-1,
				2,
				10
			]
		},
		{
			"mesh":6,
			"name":"Circle.008",
			"rotation":[
				0.7071068286895752,
				0,
				0,
				0.7071068286895752
			],
			"translation":[
				-1,
				2,
				10
			]
		}
	],
	"materials":[
		{
			"doubleSided":true,
			"name":"wood",
			"pbrMetallicRoughness":{
				"baseColorFactor":[
					0.5961487889289856,
					0.3963223099708557,
					0.14001116156578064,
					1
				],
				"metallicFactor":0,
				"roughnessFactor":0.5
			}
		}
	],
	"meshes":[
		{
			"name":"Circle.003",
			"primitives":[
				{
					"attributes":{
						"POSITION":0,
						"NORMAL":1,
						"TEXCOORD_0":2
					},
					"indices":3,
					"material":0
				}
			]
		},
		{
			"name":"Circle.004",
			"primitives":[
				{
					"attributes":{
						"POSITION":4,
						"NORMAL":5,
						"TEXCOORD_0":6
					},
					"indices":7,
					"material":0
				}
			]
		},
		{
			"name":"Circle.005",
			"primitives":[
				{
					"attributes":{
						"POSITION":8,
						"NORMAL":9,
						"TEXCOORD_0":10
					},
					"indices":7,
					"material":0
				}
			]
		},
		{
			"name":"Circle.006",
			"primitives":[
				{
					"attributes":{
						"POSITION":11,
						"NORMAL":12,
						"TEXCOORD_0":13
					},
					"indices":7,
					"material":0
				}
			]
		},
		{
			"name":"Circle.007",
			"primitives":[
				{
					"attributes":{
						"POSITION":14,
						"NORMAL":15,
						"TEXCOORD_0":16
					},
					"indices":17,
					"material":0
				}
			]
		},
		{
			"name":"Circle.008",
			"primitives":[
				{
					"attributes":{
						"POSITION":18,
						"NORMAL":19,
						"TEXCOORD_0":20
					},
					"indices":17,
					"material":0
				}
			]
		},
		{
			"name":"Circle.009",
			"primitives":[
				{
					"attributes":{
						"POSITION":21,
						"NORMAL":22,
						"TEXCOORD_0":23
					},
					"indices":17,
					"material":0
				}
			]
		}
	],
	"accessors":[
		{
			"bufferView":0,
			"componentType":5126,
			"count":290,
			"max":[
				22.825679779052734,
				1.8319413661956787,
				22.825679779052734
			],
			"min":[
				-22.82568359375,
				-1.3956971168518066,
				-22.82568359375
			],
			"type":"VEC3"
		},
		{
			"bufferView":1,
			"componentType":5126,
			"count":290,
			"type":"VEC3"
		},
		{
			"bufferView":2,
			"componentType":5126,
			"count":290,
			"type":"VEC2"
		},
		{
			"bufferView":3,
			"componentType":5123,
			"count":1728,
			"type":"SCALAR"
		},
		{
			"bufferView":4,
			"componentType":5126,
			"count":272,
			"max":[
				2.5382161140441895,
				-0.09848862886428833,
				21.280454635620117
			],
			"min":[
				-2.5382161140441895,
				-62.75343704223633,
				10.900575637817383
			],
			"type":"VEC3"
		},
		{
			"bufferView":5,
			"componentType":5126,
			"count":272,
			"type":"VEC3"
		},
		{
			"bufferView":6,
			"componentType":5126,
			"count":272,
			"type":"VEC2"
		},
		{
			"bufferView":7,
			"componentType":5123,
			"count":1578,
			"type":"SCALAR"
		},
		{
			"bufferView":8,
			"componentType":5126,
			"count":272,
			"max":[
				2.5382161140441895,
				-0.09848862886428833,
				21.280454635620117
			],
			"min":[
				-2.5382161140441895,
				-62.75343704223633,
				10.900575637817383
			],
			"type":"VEC3"
		},
		{
			"bufferView":9,
			"componentType":5126,
			"count":272,
			"type":"VEC3"
		},
		{
			"bufferView":10,
			"componentType":5126,
			"count":272,
			"type":"VEC2"
		},
		{
			"bufferView":11,
			"componentType":5126,
			"count":272,
			"max":[
				2.5382161140441895,
				-0.09848862886428833,
				21.280454635620117
			],
			"min":[
				-2.5382161140441895,
				-62.75343704223633,
				10.900575637817383
			],
			"type":"VEC3"
		},
		{
			"bufferView":12,
			"componentType":5126,
			"count":272,
			"type":"VEC3"
		},
		{
			"bufferView":13,
			"componentType":5126,
			"count":272,
			"type":"VEC2"
		},
		{
			"bufferView":14,
			"componentType":5126,
			"count":208,
			"max":[
				0.19250571727752686,
				14.488351821899414,
				14.967100143432617
			],
			"min":[
				-13.04073715209961,
				-7.180118560791016,
				11.455832481384277
			],
			"type":"VEC3"
		},
		{
			"bufferView":15,
			"componentType":5126,
			"count":208,
			"type":"VEC3"
		},
		{
			"bufferView":16,
			"componentType":5126,
			"count":208,
			"type":"VEC2"
		},
		{
			"bufferView":17,
			"componentType":5123,
			"count":1152,
			"type":"SCALAR"
		},
		{
			"bufferView":18,
			"componentType":5126,
			"count":208,
			"max":[
				0.19250571727752686,
				14.488351821899414,
				14.967100143432617
			],
			"min":[
				-13.04073715209961,
				-7.180118560791016,
				11.455832481384277
			],
			"type":"VEC3"
		},
		{
			"bufferView":19,
			"componentType":5126,
			"count":208,
			"type":"VEC3"
		},
		{
			"bufferView":20,
			"componentType":5126,
			"count":208,
			"type":"VEC2"
		},
		{
			"bufferView":21,
			"componentType":5126,
			"count":208,
			"max":[
				0.19250571727752686,
				14.488351821899414,
				14.967100143432617
			],
			"min":[
				-13.04073715209961,
				-7.180118560791016,
				11.455832481384277
			],
			"type":"VEC3"
		},
		{
			"bufferView":22,
			"componentType":5126,
			"count":208,
			"type":"VEC3"
		},
		{
			"bufferView":23,
			"componentType":5126,
			"count":208,
			"type":"VEC2"
		}
	],
	"bufferViews":[
		{
			"buffer":0,
			"byteLength":3480,
			"byteOffset":0,
			"target":34962
		},
		{
			"buffer":0,
			"byteLength":3480,
			"byteOffset":3480,
			"target":34962
		},
		{
			"buffer":0,
			"byteLength":2320,
			"byteOffset":6960,
			"target":34962
		},
		{
			"buffer":0,
			"byteLength":3456,
			"byteOffset":9280,
			"target":34963
		},
		{
			"buffer":0,
			"byteLength":3264,
			"byteOffset":12736,
			"target":34962
		},
		{
			"buffer":0,
			"byteLength":3264,
			"byteOffset":16000,
			"target":34962
		},
		{
			"buffer":0,
			"byteLength":2176,
			"byteOffset":19264,
			"target":34962
		},
		{
			"buffer":0,
			"byteLength":3156,
			"byteOffset":21440,
			"target":34963
		},
		{
			"buffer":0,
			"byteLength":3264,
			"byteOffset":24596,
			"target":34962
		},
		{
			"buffer":0,
			"byteLength":3264,
			"byteOffset":27860,
			"target":34962
		},
		{
			"buffer":0,
			"byteLength":2176,
			"byteOffset":31124,
			"target":34962
		},
		{
			"buffer":0,
			"byteLength":3264,
			"byteOffset":33300,
			"target":34962
		},
		{
			"buffer":0,
			"byteLength":3264,
			"byteOffset":36564,
			"target":34962
		},
		{
			"buffer":0,
			"byteLength":2176,
			"byteOffset":39828,
			"target":34962
		},
		{
			"buffer":0,
			"byteLength":2496,
			"byteOffset":42004,
			"target":34962
		},
		{
			"buffer":0,
			"byteLength":2496,
			"byteOffset":44500,
			"target":34962
		},
		{
			"buffer":0,
			"byteLength":1664,
			"byteOffset":46996,
			"target":34962
		},
		{
			"buffer":0,
			"byteLength":2304,
			"byteOffset":48660,
			"target":34963
		},
		{
			"buffer":0,
			"byteLength":2496,
			"byteOffset":50964,
			"target":34962
		},
		{
			"buffer":0,
			"byteLength":2496,
			"byteOffset":53460,
			"target":34962
		},
		{
			"buffer":0,
			"byteLength":1664,
			"byteOffset":55956,
			"target":34962
		},
		{
			"buffer":0,
			"byteLength":2496,
			"byteOffset":57620,
			"target":34962
		},
		{
			"buffer":0,
			"byteLength":2496,
			"byteOffset":60116,
			"target":34962
		},
		{
			"buffer":0,
			"byteLength":1664,
			"byteOffset":62612,
			"target":34962
		}
	],
	"buffers":[
		{
			"byteLength":64276,
			"uri":"data:application/octet-stream;base64,"
		}
	]
}
