{
	"asset":{
		"generator":"Khronos glTF Blender I/O v4.1.63",
		"version":"2.0"
	},
	"scene":0,
	"scenes":[
		{
			"name":"Scene",
			"nodes":[
				0,
				1
			]
		}
	],
	"nodes":[
		{
			"mesh":0,
			"name":"Cube.006",
			"translation":[
				0.05382096767425537,
				2,
				-0.05920124053955078
			]
		},
		{
			"mesh":1,
			"name":"Circle.009",
			"translation":[
				-0.00074717216193676,
				2,
				-0.0001359395682811737
			]
		}
	],
	"materials":[
		{
			"doubleSided":true,
			"name":"wood",
			"pbrMetallicRoughness":{
				"baseColorFactor":[
					0.5961487889289856,
					0.3963223099708557,
					0.14001116156578064,
					1
				],
				"metallicFactor":0,
				"roughnessFactor":0.5
			}
		}
	],
	"meshes":[
		{
			"name":"Cube.005",
			"primitives":[
				{
					"attributes":{
						"POSITION":0,
						"NORMAL":1,
						"TEXCOORD_0":2
					},
					"indices":3,
					"material":0
				}
			]
		},
		{
			"name":"Circle.010",
			"primitives":[
				{
					"attributes":{
						"POSITION":4,
						"NORMAL":5,
						"TEXCOORD_0":6
					},
					"indices":7,
					"material":0
				}
			]
		}
	],
	"accessors":[
		{
			"bufferView":0,
			"componentType":5126,
			"count":153,
			"max":[
				5.929644584655762,
				0.183864563703537,
				2.5458016395568848
			],
			"min":[
				-5.929643630981445,
				-0.183864563703537,
				-2.5458016395568848
			],
			"type":"VEC3"
		},
		{
			"bufferView":1,
			"componentType":5126,
			"count":153,
			"type":"VEC3"
		},
		{
			"bufferView":2,
			"componentType":5126,
			"count":153,
			"type":"VEC2"
		},
		{
			"bufferView":3,
			"componentType":5123,
			"count":564,
			"type":"SCALAR"
		},
		{
			"bufferView":4,
			"componentType":5126,
			"count":1216,
			"max":[
				5.523691177368164,
				-0.05833005905151367,
				2.1949985027313232
			],
			"min":[
				-5.523691177368164,
				-5.875156402587891,
				-2.1949985027313232
			],
			"type":"VEC3"
		},
		{
			"bufferView":5,
			"componentType":5126,
			"count":1216,
			"type":"VEC3"
		},
		{
			"bufferView":6,
			"componentType":5126,
			"count":1216,
			"type":"VEC2"
		},
		{
			"bufferView":7,
			"componentType":5123,
			"count":6312,
			"type":"SCALAR"
		}
	],
	"bufferViews":[
		{
			"buffer":0,
			"byteLength":1836,
			"byteOffset":0,
			"target":34962
		},
		{
			"buffer":0,
			"byteLength":1836,
			"byteOffset":1836,
			"target":34962
		},
		{
			"buffer":0,
			"byteLength":1224,
			"byteOffset":3672,
			"target":34962
		},
		{
			"buffer":0,
			"byteLength":1128,
			"byteOffset":4896,
			"target":34963
		},
		{
			"buffer":0,
			"byteLength":14592,
			"byteOffset":6024,
			"target":34962
		},
		{
			"buffer":0,
			"byteLength":14592,
			"byteOffset":20616,
			"target":34962
		},
		{
			"buffer":0,
			"byteLength":9728,
			"byteOffset":35208,
			"target":34962
		},
		{
			"buffer":0,
			"byteLength":12624,
			"byteOffset":44936,
			"target":34963
		}
	],
	"buffers":[
		{
			"byteLength":57560,
			"uri":"data:application/octet-stream;base64,"
		}
	]
}
